<svg xmlns="http://www.w3.org/2000/svg" viewBox="0 0 62.47 26.24"><defs><style>.cls-1{fill:#fff;}</style></defs><title>coop</title><g id="Capa_2" data-name="Capa 2"><g id="Pantalla_de_inicio" data-name="Pantalla de inicio"><path class="cls-1" d="M15.24,9.77a9.53,9.53,0,0,1,8-9.62A9.34,9.34,0,0,1,31,2.37c.16.14.24.15.41,0a9.46,9.46,0,0,1,15.23,4,9.06,9.06,0,0,1-2,9.62,8.86,8.86,0,0,1-5.75,2.93,9.4,9.4,0,0,1-7.36-2.21c-.28-.24-.28-.24-.55,0a9.35,9.35,0,0,1-6.4,2.3,9.48,9.48,0,0,1-9.15-7.73,9.81,9.81,0,0,1-.17-1.51m9.52-6.69a9,9,0,0,0-1.26.13,6.42,6.42,0,0,0,1.08,12.72,6.06,6.06,0,0,0,4.51-1.68c.25-.22.25-.23.1-.54a8.18,8.18,0,0,1-.83-2.59A1.52,1.52,0,0,1,31.05,10a1.94,1.94,0,0,1,.37.87,6.38,6.38,0,0,0,7.41,5,6.13,6.13,0,0,0,5-4.41A6.12,6.12,0,0,0,42.28,5a6.4,6.4,0,0,0-9-.19.33.33,0,0,0-.1.44,15.42,15.42,0,0,1,.7,1.86A1.49,1.49,0,0,1,32.81,9a1.54,1.54,0,0,1-1.88-1.18,6.46,6.46,0,0,0-6.17-4.7"/><path class="cls-1" d="M47.23,19.61v-5A1.51,1.51,0,0,1,49,13a1.48,1.48,0,0,1,1.28,1.49.81.81,0,0,0,.58.87,5.19,5.19,0,0,0,2.59.56,6.39,6.39,0,0,0,3.79-1.62A6.28,6.28,0,0,0,59.4,9.18,6.44,6.44,0,0,0,49.12,4.36,1.53,1.53,0,1,1,47.23,2,9,9,0,0,1,51.66.11a9.26,9.26,0,0,1,7.3,2,9.16,9.16,0,0,1,3.42,6.08A9.49,9.49,0,0,1,56,18.51a8,8,0,0,1-5.54,0c-.2-.07-.18,0-.18.17v5.9a1.75,1.75,0,0,1-.21.87,1.53,1.53,0,0,1-2.86-.79V19.61"/><path class="cls-1" d="M0,9.19A9.46,9.46,0,0,1,7.61.2,9.27,9.27,0,0,1,15.1,1.83a1.6,1.6,0,0,1,.73,1.76,1.53,1.53,0,0,1-2.4.82,7.66,7.66,0,0,0-1.78-1A6.43,6.43,0,1,0,8.85,15.9a6.23,6.23,0,0,0,4.47-1.22,1.6,1.6,0,0,1,1.47-.31,1.44,1.44,0,0,1,1.05,1.14,1.46,1.46,0,0,1-.59,1.56,9,9,0,0,1-3.08,1.56A9.48,9.48,0,0,1,1,13.8,9.65,9.65,0,0,1,0,9.19"/></g></g></svg>