<svg xmlns="http://www.w3.org/2000/svg" viewBox="0 0 239.71 94.21"><defs><style>.cls-1{fill:#fff;}.cls-2{fill:#fdb718;}</style></defs><title>pse</title><g id="Capa_2" data-name="Capa 2"><g id="Layer_1" data-name="Layer 1"><path class="cls-1" d="M182.46,70H156.05a1.5,1.5,0,0,1,0-3h26.26a10.39,10.39,0,0,0,8.25-10.11c.31-8.07-4.32-8.88-5.07-9h-17c-6.8-1.13-8.22-7.24-8-10.49,0-8.45,7.1-12.23,10.88-13a1.12,1.12,0,0,1,.32,0h23.78a1.5,1.5,0,0,1,0,3H171.88c-1.15.3-8.43,2.46-8.37,10.12v.11c0,.27-.33,6.31,5.39,7.35h16.73c.08,0,8.36.64,7.93,12.08a13.38,13.38,0,0,1-10.85,13Z"/><path class="cls-1" d="M232.23,70.13H207.7c-3.22-.35-9.33-2.58-9.47-8.59-.14-6.38,4.13-25.76,4.31-26.58l.06-.2c.15-.4,3.73-9.81,11.67-9.81H231.8a1.52,1.52,0,0,1,.42.06c.3.08,7.49,2.23,7.49,8.42a108.94,108.94,0,0,1-1.59,14.37A1.49,1.49,0,0,1,236.66,49l-33.92.29a78.09,78.09,0,0,0-1.51,12.15c.11,4.64,6,5.56,6.72,5.66h24.28a1.5,1.5,0,1,1,0,3ZM205.45,35.71c-.17.77-1.17,5.37-2.16,10.6L235.37,46a97.68,97.68,0,0,0,1.34-12.62c0-3.51-4.21-5.16-5.15-5.48H214.27C208.73,27.94,205.79,34.85,205.45,35.71Z"/><path class="cls-1" d="M110.31,89.81a1.24,1.24,0,0,1-.27,0A1.5,1.5,0,0,1,108.83,88s2.39-13.21,4.8-26.42C114.83,55,116,48.41,117,43.45c.46-2.48.84-4.54,1.12-6a24.68,24.68,0,0,1,.54-2.5h0c1.69-4.63,7-9.59,10.86-10.21a1.35,1.35,0,0,1,.4,0c1,0,10.51,0,16.78,0h0c1.45,0,9.23,2.91,8.32,9.06,0,.06,0,.11,0,.17l-4.18,25.54a.94.94,0,0,1,0,.16c-.09.32-2.29,7.87-9.6,10.06a1.21,1.21,0,0,1-.38.06l-15.42.44a1.08,1.08,0,0,1-.18,0,14.24,14.24,0,0,1-9-5.48c-1.66,9.11-3.31,18.26-4.33,23.84A1.5,1.5,0,0,1,110.31,89.81Zm6.58-29.38c3.06,5.82,7.77,6.68,8.46,6.78l15.09-.43c5.25-1.69,7.16-7.2,7.38-7.88L152,33.55c.43-2.82-3.9-5.84-5.68-5.83l-8.12,0c-2.12,0-4.25,0-5.84,0-1.08,0-1.87,0-2.45,0-2.54.43-7.06,4.47-8.46,8.23C121.16,37.12,119.12,48.24,116.89,60.43Z"/><path class="cls-2" d="M90.05,18.4a4.19,4.19,0,1,1-4.19-4.19A4.18,4.18,0,0,1,90.05,18.4Z"/><circle class="cls-2" cx="76.39" cy="4.18" r="4.18"/><path class="cls-2" d="M71.06,18.4a4.19,4.19,0,1,1-4.19-4.19A4.19,4.19,0,0,1,71.06,18.4Z"/><circle class="cls-2" cx="85.38" cy="75.38" r="4.18"/><circle class="cls-2" cx="76.37" cy="62.02" r="4.18"/><circle class="cls-2" cx="57.9" cy="62.02" r="3.46"/><path class="cls-2" d="M70.6,75.38a3.46,3.46,0,1,1-3.46-3.46A3.46,3.46,0,0,1,70.6,75.38Z"/><circle class="cls-2" cx="57.66" cy="90.03" r="3.46"/><circle class="cls-2" cx="48.7" cy="75.38" r="2.68"/><circle class="cls-2" cx="15.73" cy="47.34" r="2.68"/><circle class="cls-2" cx="20.53" cy="33.05" r="2.68"/><path class="cls-2" d="M32.3,18.4a2.68,2.68,0,1,1-2.68-2.69A2.68,2.68,0,0,1,32.3,18.4Z"/><path class="cls-2" d="M41.52,4.5a2.68,2.68,0,1,1-2.68-2.68A2.68,2.68,0,0,1,41.52,4.5Z"/><circle class="cls-2" cx="39.1" cy="90.03" r="2.68"/><circle class="cls-2" cx="29.88" cy="75.38" r="2.68"/><circle class="cls-2" cx="20.4" cy="62.02" r="2.68"/><circle class="cls-2" cx="15.34" cy="75.38" r="1.38"/><circle class="cls-2" cx="6.71" cy="62.02" r="1.38"/><path class="cls-2" d="M2.77,47.09a1.39,1.39,0,1,1-1.39-1.38A1.39,1.39,0,0,1,2.77,47.09Z"/><circle class="cls-2" cx="6.32" cy="33.07" r="1.38"/><circle class="cls-2" cx="15.66" cy="18.53" r="1.38"/><circle class="cls-2" cx="38.97" cy="62.02" r="3.46"/><circle class="cls-2" cx="29.23" cy="47.38" r="3.46"/><path class="cls-2" d="M42.3,33.05a3.46,3.46,0,1,1-3.46-3.46A3.46,3.46,0,0,1,42.3,33.05Z"/><circle class="cls-2" cx="48.44" cy="18.4" r="3.46"/><circle class="cls-2" cx="57.53" cy="4.25" r="3.46"/><circle class="cls-2" cx="48.2" cy="47.38" r="4.18"/><circle class="cls-2" cx="57.54" cy="33.05" r="4.18"/><circle class="cls-2" cx="76.37" cy="90.03" r="4.18"/><rect class="cls-2" x="50.32" y="45.9" width="61.92" height="2.57"/><rect class="cls-2" x="60.63" y="31.77" width="19.47" height="2.57"/><polygon class="cls-2" points="88.47 48.32 77.75 31.77 80.74 31.77 91.46 48.32 88.47 48.32"/><rect class="cls-2" x="79.63" y="60.74" width="9.93" height="2.57"/><polygon class="cls-2" points="87.2 63.3 96.09 48.32 98.66 48.32 89.77 63.3 87.2 63.3"/></g></g></svg>