<svg xmlns="http://www.w3.org/2000/svg" viewBox="0 0 133.75 40.18"><defs><style>.cls-1,.cls-2,.cls-5,.cls-9{fill:#fff;}.cls-2{font-size:15.26px;}.cls-2,.cls-5,.cls-9{font-family:Montserrat-Bold, Montserrat;font-weight:700;}.cls-3{letter-spacing:0em;}.cls-4{letter-spacing:-0.01em;}.cls-5{font-size:6.23px;}.cls-6{letter-spacing:-0.01em;}.cls-7{letter-spacing:-0.01em;}.cls-8{letter-spacing:-0.01em;}.cls-9{font-size:16.71px;}.cls-10{letter-spacing:0em;}.cls-11{letter-spacing:0em;}</style></defs><title>Economia-circular</title><g id="Capa_2" data-name="Capa 2"><g id="Pantalla_de_inicio" data-name="Pantalla de inicio"><path class="cls-1" d="M3.48,24.06a16.74,16.74,0,0,1,30.83-12A17.8,17.8,0,1,0,13.32,36a16.72,16.72,0,0,1-9.84-11.9"/><path class="cls-1" d="M31.91,16.18A13.87,13.87,0,0,1,6.37,26.1,14.74,14.74,0,1,0,23.76,6.33a13.8,13.8,0,0,1,8.15,9.85"/><path class="cls-1" d="M8.22,22.56a11.53,11.53,0,0,1,21.22-8.24A12.24,12.24,0,1,0,15,30.74a11.5,11.5,0,0,1-6.77-8.18"/><path class="cls-1" d="M27.49,17.37a9.38,9.38,0,0,1-17.27,6.7A10,10,0,1,0,22,10.7a9.36,9.36,0,0,1,5.51,6.67"/><path class="cls-1" d="M24,17a7,7,0,0,1-12.89,5,7.44,7.44,0,1,0,8.77-10A7,7,0,0,1,24,17"/><text class="cls-2" transform="translate(38.9 20.6)"><tspan class="cls-3">E</tspan><tspan class="cls-4" x="10.22" y="0">C</tspan><tspan x="21.19" y="0">ONOMÍA </tspan></text><text class="cls-5" transform="translate(39.63 5.3)">EM<tspan class="cls-6" x="10.14" y="0">P</tspan><tspan x="14.64" y="0">RESA </tspan><tspan class="cls-7" x="33.93" y="0">C</tspan><tspan x="38.41" y="0">OM</tspan><tspan class="cls-8" x="49.63" y="0">P</tspan><tspan x="54.13" y="0">ROMETI</tspan><tspan class="cls-8" x="80.01" y="0">D</tspan><tspan x="85.1" y="0">A</tspan></text><text class="cls-9" transform="translate(39.5 35.73)">CIR<tspan class="cls-10" x="30.01" y="0">C</tspan><tspan x="42.18" y="0">U</tspan><tspan class="cls-11" x="55.35" y="0">L</tspan><tspan x="65.52" y="0">AR</tspan></text></g></g></svg>