<svg xmlns="http://www.w3.org/2000/svg" viewBox="0 0 96.34 37.1"><defs><style>.cls-1{fill:#fff;}.cls-2{fill:none;stroke:#fff;stroke-miterlimit:10;stroke-width:0.32px;}</style></defs><title>Huella de carbono</title><g id="Capa_2" data-name="Capa 2"><g id="Pantalla_de_inicio" data-name="Pantalla de inicio"><path class="cls-1" d="M3.08,19.38A14.32,14.32,0,0,1,29.75,10,15.21,15.21,0,1,0,11.16,29.81,14.33,14.33,0,0,1,3.08,19.38"/><path class="cls-1" d="M42,21.43a3.07,3.07,0,0,0-.86-2.38,3.48,3.48,0,0,0-2.37-.71,4.28,4.28,0,0,0-2,.47,5.32,5.32,0,0,0-1.57,1.27A8.06,8.06,0,0,0,34,21.93a10.9,10.9,0,0,0-.68,2.21,11.35,11.35,0,0,0-.21,2.15,5.25,5.25,0,0,0,.32,1.88,3,3,0,0,0,1.06,1.34,3.42,3.42,0,0,0,2,.51A3.81,3.81,0,0,0,38,29.74,4.73,4.73,0,0,0,39.26,29a5.41,5.41,0,0,0,1-1.14,7.82,7.82,0,0,0,.78-1.43h1.2a10.23,10.23,0,0,1-1,1.79A6.88,6.88,0,0,1,40,29.69a6.05,6.05,0,0,1-1.73,1,6.16,6.16,0,0,1-2.2.37,4.24,4.24,0,0,1-2.29-.55A3.47,3.47,0,0,1,32.46,29a5.52,5.52,0,0,1-.49-2.2,10.71,10.71,0,0,1,.25-2.64A11.6,11.6,0,0,1,33.27,21a7.64,7.64,0,0,1,1.61-2.13,5.49,5.49,0,0,1,2-1.2,7.19,7.19,0,0,1,2.32-.38,4,4,0,0,1,3,1.06,3.86,3.86,0,0,1,1,3.09"/><path class="cls-1" d="M48.64,25.23l.7-.11a2.43,2.43,0,0,0,.7-.2.69.69,0,0,0,.4-.42,3.74,3.74,0,0,0,.16-.56,2.2,2.2,0,0,0,0-.76,1.17,1.17,0,0,0-.26-.6,1.34,1.34,0,0,0-.59-.4,2.67,2.67,0,0,0-1-.15,3.5,3.5,0,0,0-1.83.46,2.75,2.75,0,0,0-1.15,1.67h-1a4.69,4.69,0,0,1,.63-1.43,3.84,3.84,0,0,1,1-1,4.14,4.14,0,0,1,1.23-.55A5.79,5.79,0,0,1,49,21.05a4.61,4.61,0,0,1,1.21.15,2.27,2.27,0,0,1,.91.49,1.81,1.81,0,0,1,.5.9,3.42,3.42,0,0,1,0,1.39l-1,5.13c-.09.42-.08.69,0,.81s.41.09.87-.09l-.17.86L51,30.8a1.56,1.56,0,0,1-.46.07,2.12,2.12,0,0,1-.44-.05.6.6,0,0,1-.56-.5,2.49,2.49,0,0,1,0-.9,5.89,5.89,0,0,1-1.71,1.16A4.48,4.48,0,0,1,46,31a3.4,3.4,0,0,1-1.08-.16,2,2,0,0,1-.83-.51,1.84,1.84,0,0,1-.48-.85,2.64,2.64,0,0,1,0-1.19c.31-1.6,1.51-2.55,3.62-2.84m3,.35a6,6,0,0,1-1.38.38q-.67.09-1.35.15a4.19,4.19,0,0,0-1.94.56,2.06,2.06,0,0,0-.93,1.44,1.45,1.45,0,0,0,0,.75,1.26,1.26,0,0,0,.33.53,1.57,1.57,0,0,0,.55.31,2.2,2.2,0,0,0,.68.1,4.59,4.59,0,0,0,1.21-.17,3.63,3.63,0,0,0,1.12-.5A3.16,3.16,0,0,0,50,27.25Z"/><path class="cls-1" d="M54,30.73H53l1.86-9.43h1l-.36,1.77h0a4.26,4.26,0,0,1,1.4-1.58,3.71,3.71,0,0,1,1.86-.44l-.23,1.18a3.22,3.22,0,0,0-1.47.29,3.3,3.3,0,0,0-1.05.84,4.86,4.86,0,0,0-.71,1.25,8.7,8.7,0,0,0-.43,1.5"/><path class="cls-1" d="M59.7,30.73h-1l2.59-13.1h1l-1,5.18a4.24,4.24,0,0,1,1.6-1.32,4.49,4.49,0,0,1,1.88-.44,3,3,0,0,1,1.66.41,2.63,2.63,0,0,1,1,1.09,3.88,3.88,0,0,1,.41,1.59A7.22,7.22,0,0,1,67.67,26,8.88,8.88,0,0,1,67.05,28a5.36,5.36,0,0,1-1,1.57,4.38,4.38,0,0,1-1.43,1.05,4.44,4.44,0,0,1-1.88.38,2.68,2.68,0,0,1-.84-.13,3.05,3.05,0,0,1-.78-.36,2.74,2.74,0,0,1-.64-.59,2.5,2.5,0,0,1-.42-.83h0M60.63,26a6.36,6.36,0,0,0-.12,1.59,3.21,3.21,0,0,0,.32,1.27,2.11,2.11,0,0,0,.77.85,2.25,2.25,0,0,0,1.21.31A3,3,0,0,0,64,29.75,3.47,3.47,0,0,0,65.13,29,4.9,4.9,0,0,0,66,27.88a5.59,5.59,0,0,0,.55-1.57,6.74,6.74,0,0,0,.19-1.67,3.49,3.49,0,0,0-.27-1.35,2,2,0,0,0-.77-.92,2.31,2.31,0,0,0-1.3-.34,2.81,2.81,0,0,0-1.3.32,4.22,4.22,0,0,0-1.1.85,4.89,4.89,0,0,0-.85,1.26,6,6,0,0,0-.5,1.52"/><path class="cls-1" d="M72.33,31a3.68,3.68,0,0,1-1.51-.33,2.65,2.65,0,0,1-1.1-.92,3.71,3.71,0,0,1-.57-1.55,6.77,6.77,0,0,1,.1-2.16,8,8,0,0,1,.64-1.94A6.1,6.1,0,0,1,71,22.5a5.06,5.06,0,0,1,1.49-1.06,4.27,4.27,0,0,1,1.84-.39,3.42,3.42,0,0,1,1.72.39,2.7,2.7,0,0,1,1.06,1.06,3.61,3.61,0,0,1,.44,1.57A7,7,0,0,1,77.37,26a7,7,0,0,1-.69,2,6.37,6.37,0,0,1-1.13,1.57,4.93,4.93,0,0,1-1.48,1,4.47,4.47,0,0,1-1.74.35m4-5a8,8,0,0,0,.14-1.57,3,3,0,0,0-.27-1.26,1.91,1.91,0,0,0-.74-.85A2.42,2.42,0,0,0,74.11,22a3,3,0,0,0-1.43.34,3.79,3.79,0,0,0-1.11.89,5.21,5.21,0,0,0-.78,1.27A7.75,7.75,0,0,0,70.34,26a6.47,6.47,0,0,0-.12,1.6,3.34,3.34,0,0,0,.32,1.27,2,2,0,0,0,.77.82,2.43,2.43,0,0,0,1.23.29A2.9,2.9,0,0,0,74,29.66a3.55,3.55,0,0,0,1.11-.9,5.35,5.35,0,0,0,.76-1.27A7,7,0,0,0,76.29,26"/><path class="cls-1" d="M79.32,30.73h-1l1.85-9.43h1l-.25,1.31a8.48,8.48,0,0,1,1.48-1.12,3.08,3.08,0,0,1,1.64-.44,3.32,3.32,0,0,1,1.45.3,2,2,0,0,1,1,1,2.18,2.18,0,0,1,.17,1,9.43,9.43,0,0,1-.16,1.12l-1.21,6.17h-1l1.22-6.15a2.68,2.68,0,0,0-.14-1.91A1.77,1.77,0,0,0,83.7,22a2.51,2.51,0,0,0-.9.16,3.59,3.59,0,0,0-.78.4,4.64,4.64,0,0,0-.66.59,3.83,3.83,0,0,0-.47.69,4.4,4.4,0,0,0-.35.87,9.36,9.36,0,0,0-.22.91"/><path class="cls-1" d="M91.14,31a3.64,3.64,0,0,1-1.51-.33,2.65,2.65,0,0,1-1.1-.92A3.58,3.58,0,0,1,88,28.18a6.77,6.77,0,0,1,.1-2.16,8,8,0,0,1,.64-1.94,6.1,6.1,0,0,1,1.07-1.58,5,5,0,0,1,1.48-1.06,4.35,4.35,0,0,1,1.85-.39,3.45,3.45,0,0,1,1.72.39,2.7,2.7,0,0,1,1.06,1.06,3.75,3.75,0,0,1,.44,1.57A7.41,7.41,0,0,1,96.18,26a7.7,7.7,0,0,1-.69,2,6.64,6.64,0,0,1-1.13,1.57,5.06,5.06,0,0,1-1.48,1,4.47,4.47,0,0,1-1.74.35m4-5a8.87,8.87,0,0,0,.14-1.57A3.21,3.21,0,0,0,95,23.19a1.91,1.91,0,0,0-.74-.85A2.42,2.42,0,0,0,92.92,22a2.93,2.93,0,0,0-1.43.34,3.67,3.67,0,0,0-1.11.89,5.21,5.21,0,0,0-.78,1.27A7.75,7.75,0,0,0,89.15,26a5.63,5.63,0,0,0-.12,1.6,3.16,3.16,0,0,0,.32,1.27,2,2,0,0,0,.77.82,2.43,2.43,0,0,0,1.23.29,2.92,2.92,0,0,0,1.42-.34,3.41,3.41,0,0,0,1.1-.9,5.07,5.07,0,0,0,.77-1.27A7,7,0,0,0,95.1,26"/><polyline class="cls-1" points="32.41 15.6 34.73 2.97 35.75 2.97 34.76 8.39 41.19 8.39 42.18 2.97 43.21 2.97 40.9 15.6 39.87 15.6 41 9.41 34.58 9.41 33.44 15.6"/><path class="cls-1" d="M50.15,6.51h.9L49.4,15.6h-.91l.23-1.26-.5.51a5,5,0,0,1-.61.48,3.57,3.57,0,0,1-.76.37,3.08,3.08,0,0,1-2.19-.11,1.62,1.62,0,0,1-.73-.71,2.51,2.51,0,0,1-.27-1.06,5.68,5.68,0,0,1,.11-1.32l1.08-6h.91l-1.09,6a2.69,2.69,0,0,0,.15,1.8,1.49,1.49,0,0,0,1.42.62,2.26,2.26,0,0,0,1-.25,2.7,2.7,0,0,0,.87-.72,4.4,4.4,0,0,0,.67-1.08,6.44,6.44,0,0,0,.41-1.39"/><path class="cls-1" d="M52.93,11.3a5.65,5.65,0,0,0-.09,1.4,3,3,0,0,0,.28,1.14,1.9,1.9,0,0,0,.69.77,2,2,0,0,0,1.1.29,2.67,2.67,0,0,0,1.62-.54,3.5,3.5,0,0,0,1.12-1.55h1A8,8,0,0,1,58,14a5,5,0,0,1-.86,1,3.67,3.67,0,0,1-1.08.64,3.86,3.86,0,0,1-1.35.23,2.94,2.94,0,0,1-1.55-.37,2.45,2.45,0,0,1-.93-1A3.86,3.86,0,0,1,51.87,13,8.22,8.22,0,0,1,52,11.09a7.76,7.76,0,0,1,.58-1.88,6.94,6.94,0,0,1,1-1.53,4.5,4.5,0,0,1,1.32-1,3.38,3.38,0,0,1,1.58-.38,2.39,2.39,0,0,1,2.29,1.3A5.77,5.77,0,0,1,59,11.3m-.81-.88a4.13,4.13,0,0,0,.07-1.25,2.64,2.64,0,0,0-.28-1,1.7,1.7,0,0,0-.65-.68,1.93,1.93,0,0,0-1-.26,2.31,2.31,0,0,0-1.11.27,3.4,3.4,0,0,0-.92.7,4.48,4.48,0,0,0-.7,1,5.66,5.66,0,0,0-.49,1.22Z"/><polygon class="cls-1" points="60.11 15.6 62.42 2.97 63.33 2.97 61.02 15.6 60.11 15.6"/><polygon class="cls-1" points="63.46 15.6 65.77 2.97 66.68 2.97 64.37 15.6 63.46 15.6"/><path class="cls-1" d="M71.23,10.3l.63-.1a2.34,2.34,0,0,0,.63-.2.65.65,0,0,0,.35-.41A3.23,3.23,0,0,0,73,9.06a1.88,1.88,0,0,0,0-.74,1.15,1.15,0,0,0-.23-.58,1.36,1.36,0,0,0-.53-.39,2.33,2.33,0,0,0-.87-.14,3,3,0,0,0-1.63.44,2.66,2.66,0,0,0-1,1.62h-.92a4.58,4.58,0,0,1,.56-1.38A3.54,3.54,0,0,1,69.24,7a3.45,3.45,0,0,1,1.09-.53,4.69,4.69,0,0,1,1.24-.16,4.09,4.09,0,0,1,1.08.14,1.94,1.94,0,0,1,.81.48,1.68,1.68,0,0,1,.44.87,3.3,3.3,0,0,1,0,1.33L73,14c-.08.41-.07.67,0,.78s.37.09.78-.08l-.15.83-.33.1a1.22,1.22,0,0,1-.41.07,1.31,1.31,0,0,1-.39-.05.56.56,0,0,1-.5-.48,2.83,2.83,0,0,1,0-.87,5.38,5.38,0,0,1-1.51,1.12,3.82,3.82,0,0,1-1.67.39,3,3,0,0,1-1-.16,1.92,1.92,0,0,1-.75-.49,1.88,1.88,0,0,1-.42-.82,2.77,2.77,0,0,1,0-1.15c.27-1.54,1.35-2.45,3.23-2.74m2.72.34a4.76,4.76,0,0,1-1.23.37c-.4.06-.8.1-1.2.14a3.61,3.61,0,0,0-1.73.54,2,2,0,0,0-.84,1.39,1.6,1.6,0,0,0,0,.73,1.09,1.09,0,0,0,.29.5,1.18,1.18,0,0,0,.49.3,1.74,1.74,0,0,0,.61.1,3.67,3.67,0,0,0,1.08-.16,3.13,3.13,0,0,0,1-.48,3,3,0,0,0,.79-.83,3.21,3.21,0,0,0,.47-1.18Z"/><path class="cls-1" d="M87.61,3h.91L86.21,15.6H85.3l.29-1.6h0a3,3,0,0,1-.64.8,3.85,3.85,0,0,1-.79.57,3.43,3.43,0,0,1-.82.35,2.56,2.56,0,0,1-.79.13A3,3,0,0,1,81,15.48a2.32,2.32,0,0,1-.9-1A3.87,3.87,0,0,1,79.71,13a8.3,8.3,0,0,1,.14-1.88,9.32,9.32,0,0,1,.54-1.82,6,6,0,0,1,.92-1.54,4.28,4.28,0,0,1,1.28-1,3.41,3.41,0,0,1,1.62-.4,2.78,2.78,0,0,1,1.52.44,2.23,2.23,0,0,1,1,1.27M86.13,11a5.63,5.63,0,0,0,.08-1.46,3.42,3.42,0,0,0-.29-1.22,2.09,2.09,0,0,0-.67-.82,1.81,1.81,0,0,0-1-.31,2.49,2.49,0,0,0-1.28.33,3.39,3.39,0,0,0-1,.88,5.14,5.14,0,0,0-.72,1.31,7.3,7.3,0,0,0-.41,1.61,5,5,0,0,0-.06,1.52A2.79,2.79,0,0,0,81.06,14a1.84,1.84,0,0,0,.72.69,2.08,2.08,0,0,0,1,.24A2.44,2.44,0,0,0,84,14.6a3.42,3.42,0,0,0,1-.81,4.63,4.63,0,0,0,.72-1.23A7.44,7.44,0,0,0,86.13,11"/><path class="cls-1" d="M89.83,11.3a5.65,5.65,0,0,0-.09,1.4A3,3,0,0,0,90,13.84a2,2,0,0,0,.69.77,2,2,0,0,0,1.1.29,2.67,2.67,0,0,0,1.62-.54,3.43,3.43,0,0,0,1.12-1.55h1a8,8,0,0,1-.65,1.2,4.71,4.71,0,0,1-.86,1,3.67,3.67,0,0,1-1.08.64,3.86,3.86,0,0,1-1.35.23,2.88,2.88,0,0,1-1.54-.37,2.47,2.47,0,0,1-.94-1A3.69,3.69,0,0,1,88.77,13a8.22,8.22,0,0,1,.14-1.87,7.36,7.36,0,0,1,.59-1.88,6.57,6.57,0,0,1,1-1.53,4.5,4.5,0,0,1,1.32-1,3.41,3.41,0,0,1,1.58-.38,2.39,2.39,0,0,1,2.29,1.3,5.77,5.77,0,0,1,.23,3.74m-.81-.88a4.13,4.13,0,0,0,.07-1.25,2.64,2.64,0,0,0-.28-1,1.7,1.7,0,0,0-.65-.68,1.93,1.93,0,0,0-1-.26,2.31,2.31,0,0,0-1.11.27,3.4,3.4,0,0,0-.92.7,4.83,4.83,0,0,0-.7,1A5.66,5.66,0,0,0,90,10.42Z"/><path class="cls-1" d="M2.25,34.71A.8.8,0,0,0,2,34.48a.84.84,0,0,0-.27-.13,1.13,1.13,0,0,0-.32-.05,1.17,1.17,0,0,0-.52.11.94.94,0,0,0-.36.29,1.2,1.2,0,0,0-.2.41,1.53,1.53,0,0,0-.07.47,1.49,1.49,0,0,0,.07.47,1.2,1.2,0,0,0,.2.41,1,1,0,0,0,.36.3,1.17,1.17,0,0,0,.52.11,1,1,0,0,0,.39-.08.84.84,0,0,0,.29-.2,1,1,0,0,0,.2-.29,1.56,1.56,0,0,0,.1-.37h.29a1.54,1.54,0,0,1-.13.49,1.22,1.22,0,0,1-.27.36,1.17,1.17,0,0,1-.38.24,1.53,1.53,0,0,1-.49.08A1.39,1.39,0,0,1,.81,37a1.25,1.25,0,0,1-.45-.33,1.42,1.42,0,0,1-.27-.48A1.85,1.85,0,0,1,0,35.58,1.79,1.79,0,0,1,.09,35a1.37,1.37,0,0,1,.27-.49,1.25,1.25,0,0,1,.45-.33,1.39,1.39,0,0,1,.63-.13,1.59,1.59,0,0,1,.43.06,1.09,1.09,0,0,1,.37.19.86.86,0,0,1,.28.29.92.92,0,0,1,.15.41H2.38a.83.83,0,0,0-.13-.3"/><path class="cls-1" d="M3.08,35a1.37,1.37,0,0,1,.27-.49,1.25,1.25,0,0,1,.45-.33,1.39,1.39,0,0,1,.63-.13,1.39,1.39,0,0,1,.63.13,1.25,1.25,0,0,1,.45.33,1.37,1.37,0,0,1,.27.49,1.79,1.79,0,0,1,.09.57,1.85,1.85,0,0,1-.09.58,1.42,1.42,0,0,1-.27.48,1.25,1.25,0,0,1-.45.33,1.39,1.39,0,0,1-.63.13A1.39,1.39,0,0,1,3.8,37a1.25,1.25,0,0,1-.45-.33,1.42,1.42,0,0,1-.27-.48A1.85,1.85,0,0,1,3,35.58,1.79,1.79,0,0,1,3.08,35m.27,1a1.2,1.2,0,0,0,.2.41,1.31,1.31,0,0,0,.36.3,1.21,1.21,0,0,0,.52.11A1.17,1.17,0,0,0,5,36.76a1,1,0,0,0,.35-.3,1.07,1.07,0,0,0,.21-.41,1.49,1.49,0,0,0,.07-.47,1.53,1.53,0,0,0-.07-.47,1.07,1.07,0,0,0-.21-.41A.91.91,0,0,0,5,34.41a1.17,1.17,0,0,0-.52-.11,1.21,1.21,0,0,0-.52.11,1.12,1.12,0,0,0-.36.29,1.2,1.2,0,0,0-.2.41,1.91,1.91,0,0,0-.07.47,1.84,1.84,0,0,0,.07.47"/><path class="cls-1" d="M7.72,34.12a1.49,1.49,0,0,1,.36.05.78.78,0,0,1,.29.14.64.64,0,0,1,.27.57.81.81,0,0,1-.14.49.73.73,0,0,1-.45.26h0a.61.61,0,0,1,.25.07.56.56,0,0,1,.16.14.72.72,0,0,1,.09.2,2,2,0,0,1,0,.24v.18c0,.07,0,.15,0,.22a1.18,1.18,0,0,0,0,.2.35.35,0,0,0,.08.15H8.41a.3.3,0,0,1,0-.1.5.5,0,0,1,0-.12l0-.13a.31.31,0,0,0,0-.1,3,3,0,0,0,0-.31A1.07,1.07,0,0,0,8.22,36a.49.49,0,0,0-.18-.2.54.54,0,0,0-.33-.06H6.61V37H6.32V34.12M7.7,35.51a.69.69,0,0,0,.25,0,.7.7,0,0,0,.21-.11.49.49,0,0,0,.14-.18.47.47,0,0,0,0-.24.54.54,0,0,0-.16-.42.64.64,0,0,0-.49-.16H6.61v1.15Z"/><path class="cls-1" d="M10.53,34.12a1.1,1.1,0,0,1,.37.06,1,1,0,0,1,.29.16.75.75,0,0,1,.18.27,1.05,1.05,0,0,1,0,.7.81.81,0,0,1-.18.26,1.05,1.05,0,0,1-.29.17,1.44,1.44,0,0,1-.37,0H9.46V37H9.17V34.12m1.29,1.43a.79.79,0,0,0,.49-.14.63.63,0,0,0,0-.9.74.74,0,0,0-.49-.15h-1v1.19Z"/><path class="cls-1" d="M11.79,35a1.37,1.37,0,0,1,.27-.49,1.25,1.25,0,0,1,.45-.33,1.59,1.59,0,0,1,1.26,0,1.25,1.25,0,0,1,.45.33,1.37,1.37,0,0,1,.27.49,1.79,1.79,0,0,1,.09.57,1.85,1.85,0,0,1-.09.58,1.42,1.42,0,0,1-.27.48,1.25,1.25,0,0,1-.45.33,1.59,1.59,0,0,1-1.26,0,1.25,1.25,0,0,1-.45-.33,1.42,1.42,0,0,1-.27-.48,1.85,1.85,0,0,1-.09-.58,1.79,1.79,0,0,1,.09-.57m.27,1a1.07,1.07,0,0,0,.21.41,1,1,0,0,0,.35.3,1.21,1.21,0,0,0,.52.11,1.14,1.14,0,0,0,.52-.11,1.18,1.18,0,0,0,.36-.3,1.2,1.2,0,0,0,.2-.41,1.49,1.49,0,0,0,.07-.47,1.53,1.53,0,0,0-.07-.47,1.2,1.2,0,0,0-.2-.41,1,1,0,0,0-.36-.29,1.14,1.14,0,0,0-.52-.11,1.21,1.21,0,0,0-.52.11.91.91,0,0,0-.35.29,1.07,1.07,0,0,0-.21.41,1.91,1.91,0,0,0-.07.47,1.84,1.84,0,0,0,.07.47"/><path class="cls-1" d="M16.43,34.12a1.42,1.42,0,0,1,.36.05.71.71,0,0,1,.29.14.68.68,0,0,1,.28.57.81.81,0,0,1-.15.49.73.73,0,0,1-.45.26h0a.57.57,0,0,1,.25.07.56.56,0,0,1,.16.14.72.72,0,0,1,.09.2,2,2,0,0,1,0,.24,1.21,1.21,0,0,0,0,.18c0,.07,0,.15,0,.22s0,.14,0,.2a.35.35,0,0,0,.08.15h-.32a.3.3,0,0,1,0-.1.5.5,0,0,1,0-.12.53.53,0,0,1,0-.13.38.38,0,0,1,0-.1l0-.31a1.07,1.07,0,0,0-.08-.27.49.49,0,0,0-.18-.2.53.53,0,0,0-.32-.06H15.32V37H15V34.12m1.38,1.39a.69.69,0,0,0,.25,0,.7.7,0,0,0,.21-.11.49.49,0,0,0,.14-.18.48.48,0,0,0,.06-.24.54.54,0,0,0-.17-.42.64.64,0,0,0-.49-.16H15.32v1.15Z"/><path class="cls-1" d="M19.1,34.12,20.3,37H20l-.38-.91H18.23l-.37.91h-.31l1.23-2.92m.73,1.78-.59-1.5-.61,1.5Z"/><path class="cls-1" d="M22.68,34.71a.93.93,0,0,0-.21-.23,1,1,0,0,0-.28-.13,1.13,1.13,0,0,0-.32-.05,1.21,1.21,0,0,0-.52.11,1,1,0,0,0-.36.29,1.2,1.2,0,0,0-.2.41,1.53,1.53,0,0,0-.07.47,1.49,1.49,0,0,0,.07.47,1.2,1.2,0,0,0,.2.41,1.05,1.05,0,0,0,.36.3,1.21,1.21,0,0,0,.52.11,1,1,0,0,0,.39-.08.84.84,0,0,0,.29-.2,1,1,0,0,0,.2-.29,1.2,1.2,0,0,0,.1-.37h.29a1.54,1.54,0,0,1-.13.49,1.22,1.22,0,0,1-.27.36,1.07,1.07,0,0,1-.38.24,1.53,1.53,0,0,1-.49.08,1.39,1.39,0,0,1-.63-.13,1.25,1.25,0,0,1-.45-.33,1.42,1.42,0,0,1-.27-.48,1.85,1.85,0,0,1-.09-.58,1.79,1.79,0,0,1,.09-.57,1.37,1.37,0,0,1,.27-.49,1.25,1.25,0,0,1,.45-.33,1.39,1.39,0,0,1,.63-.13,1.54,1.54,0,0,1,.43.06,1.09,1.09,0,0,1,.37.19.86.86,0,0,1,.28.29.92.92,0,0,1,.15.41h-.29a.83.83,0,0,0-.13-.3"/><rect class="cls-1" x="23.61" y="34.12" width="0.29" height="2.92"/><path class="cls-1" d="M24.46,35a1.37,1.37,0,0,1,.27-.49,1.25,1.25,0,0,1,.45-.33,1.59,1.59,0,0,1,1.26,0,1.25,1.25,0,0,1,.45.33,1.37,1.37,0,0,1,.27.49,1.79,1.79,0,0,1,.09.57,1.85,1.85,0,0,1-.09.58,1.42,1.42,0,0,1-.27.48,1.25,1.25,0,0,1-.45.33,1.59,1.59,0,0,1-1.26,0,1.25,1.25,0,0,1-.45-.33,1.42,1.42,0,0,1-.27-.48,1.85,1.85,0,0,1-.09-.58,1.79,1.79,0,0,1,.09-.57m.27,1a1.2,1.2,0,0,0,.2.41,1.31,1.31,0,0,0,.36.3,1.21,1.21,0,0,0,.52.11,1.14,1.14,0,0,0,.52-.11,1,1,0,0,0,.35-.3,1.07,1.07,0,0,0,.21-.41,1.49,1.49,0,0,0,.07-.47,1.53,1.53,0,0,0-.07-.47,1.07,1.07,0,0,0-.21-.41.91.91,0,0,0-.35-.29,1.14,1.14,0,0,0-.52-.11,1.21,1.21,0,0,0-.52.11,1.12,1.12,0,0,0-.36.29,1.2,1.2,0,0,0-.2.41,1.91,1.91,0,0,0-.07.47,1.84,1.84,0,0,0,.07.47m.83-2.16.44-.58h.34l-.57.58Z"/><polyline class="cls-1" points="28.02 34.12 29.8 36.59 29.81 36.59 29.81 34.12 30.1 34.12 30.1 37.04 29.77 37.04 28 34.57 27.99 34.57 27.99 37.04 27.7 37.04 27.7 34.12"/><polyline class="cls-1" points="33.84 34.12 33.84 34.36 32.19 34.36 32.19 35.41 33.65 35.41 33.65 35.65 32.19 35.65 32.19 37.04 31.9 37.04 31.9 34.12"/><polyline class="cls-1" points="36.3 34.12 36.3 34.36 34.48 34.36 34.48 35.41 36.18 35.41 36.18 35.65 34.48 35.65 34.48 36.8 36.32 36.8 36.32 37.04 34.19 37.04 34.19 34.12"/><polyline class="cls-1" points="37.05 34.12 38.83 36.59 38.84 36.59 38.84 34.12 39.13 34.12 39.13 37.04 38.8 37.04 37.03 34.57 37.02 34.57 37.02 37.04 36.73 37.04 36.73 34.12"/><path class="cls-1" d="M41,34.12,42.15,37h-.31l-.37-.91H40.08l-.37.91h-.3l1.22-2.92m.74,1.78-.59-1.5-.61,1.5Z"/><polyline class="cls-1" points="42.72 34.12 42.72 36.8 44.43 36.8 44.43 37.04 42.43 37.04 42.43 34.12"/><path class="cls-1" d="M46.83,34.71a.93.93,0,0,0-.21-.23,1,1,0,0,0-.28-.13A1.13,1.13,0,0,0,46,34.3a1.17,1.17,0,0,0-.52.11.91.91,0,0,0-.35.29,1.07,1.07,0,0,0-.21.41,1.53,1.53,0,0,0-.07.47,1.49,1.49,0,0,0,.07.47,1.07,1.07,0,0,0,.21.41.93.93,0,0,0,.35.3,1.17,1.17,0,0,0,.52.11,1,1,0,0,0,.39-.08,1,1,0,0,0,.49-.49,1.56,1.56,0,0,0,.1-.37h.29a1.54,1.54,0,0,1-.13.49,1.22,1.22,0,0,1-.27.36,1,1,0,0,1-.38.24,1.53,1.53,0,0,1-.49.08,1.39,1.39,0,0,1-.63-.13,1.25,1.25,0,0,1-.45-.33,1.42,1.42,0,0,1-.27-.48,1.85,1.85,0,0,1-.09-.58,1.79,1.79,0,0,1,.09-.57,1.37,1.37,0,0,1,.27-.49,1.25,1.25,0,0,1,.45-.33,1.39,1.39,0,0,1,.63-.13,1.54,1.54,0,0,1,.43.06,1.33,1.33,0,0,1,.66.48,1,1,0,0,1,.14.41H47a.83.83,0,0,0-.13-.3"/><path class="cls-1" d="M47.66,35a1.37,1.37,0,0,1,.27-.49,1.25,1.25,0,0,1,.45-.33,1.42,1.42,0,0,1,.63-.13,1.39,1.39,0,0,1,.63.13,1.25,1.25,0,0,1,.45.33,1.37,1.37,0,0,1,.27.49,1.79,1.79,0,0,1,.09.57,1.85,1.85,0,0,1-.09.58,1.42,1.42,0,0,1-.27.48,1.25,1.25,0,0,1-.45.33,1.39,1.39,0,0,1-.63.13,1.42,1.42,0,0,1-.63-.13,1.25,1.25,0,0,1-.45-.33,1.42,1.42,0,0,1-.27-.48,2.2,2.2,0,0,1-.09-.58,2.12,2.12,0,0,1,.09-.57m.27,1a1.2,1.2,0,0,0,.2.41,1.31,1.31,0,0,0,.36.3,1.21,1.21,0,0,0,.52.11,1.25,1.25,0,0,0,.53-.11,1.14,1.14,0,0,0,.35-.3,1.2,1.2,0,0,0,.2-.41,1.49,1.49,0,0,0,.07-.47,1.53,1.53,0,0,0-.07-.47,1.2,1.2,0,0,0-.2-.41,1,1,0,0,0-.35-.29A1.25,1.25,0,0,0,49,34.3a1.21,1.21,0,0,0-.52.11,1.12,1.12,0,0,0-.36.29,1.2,1.2,0,0,0-.2.41,1.89,1.89,0,0,0-.06.47,1.84,1.84,0,0,0,.06.47"/><path class="cls-1" d="M52.3,36.46a.61.61,0,0,0,.21.24,1,1,0,0,0,.32.13,2.35,2.35,0,0,0,.4,0,1.51,1.51,0,0,0,.26,0,.93.93,0,0,0,.26-.1.7.7,0,0,0,.2-.18.44.44,0,0,0,.08-.28.37.37,0,0,0-.06-.21.4.4,0,0,0-.14-.15l-.21-.1a.9.9,0,0,0-.22-.06l-.68-.16a2.5,2.5,0,0,1-.25-.09.54.54,0,0,1-.22-.13.53.53,0,0,1-.16-.2.79.79,0,0,1-.05-.29.85.85,0,0,1,0-.25.77.77,0,0,1,.16-.27,1,1,0,0,1,.32-.21,1.36,1.36,0,0,1,.53-.09,1.54,1.54,0,0,1,.43.06,1,1,0,0,1,.36.17.85.85,0,0,1,.24.29.71.71,0,0,1,.1.39h-.3a.65.65,0,0,0-.07-.29.55.55,0,0,0-.19-.21.71.71,0,0,0-.26-.13,1.06,1.06,0,0,0-.31,0,1.43,1.43,0,0,0-.29,0,.64.64,0,0,0-.24.1.42.42,0,0,0-.17.18.54.54,0,0,0-.06.27.48.48,0,0,0,0,.18.64.64,0,0,0,.1.13.71.71,0,0,0,.15.08l.18,0,.74.18.31.1a1,1,0,0,1,.25.15.68.68,0,0,1,.17.21.75.75,0,0,1,.06.31.66.66,0,0,1,0,.13.41.41,0,0,1-.05.17,1.18,1.18,0,0,1-.11.19.92.92,0,0,1-.21.17,1.07,1.07,0,0,1-.32.12,2,2,0,0,1-.46.05,2.1,2.1,0,0,1-.51-.06,1.17,1.17,0,0,1-.39-.18.89.89,0,0,1-.25-.32,1.09,1.09,0,0,1-.07-.46h.29a.74.74,0,0,0,.07.38"/><path class="cls-1" d="M54.71,35a1.37,1.37,0,0,1,.27-.49,1.25,1.25,0,0,1,.45-.33,1.59,1.59,0,0,1,1.26,0,1.25,1.25,0,0,1,.45.33,1.37,1.37,0,0,1,.27.49,1.79,1.79,0,0,1,.09.57,1.85,1.85,0,0,1-.09.58,1.42,1.42,0,0,1-.27.48,1.25,1.25,0,0,1-.45.33,1.59,1.59,0,0,1-1.26,0,1.25,1.25,0,0,1-.45-.33,1.42,1.42,0,0,1-.27-.48,1.85,1.85,0,0,1-.09-.58,1.79,1.79,0,0,1,.09-.57m.27,1a1.2,1.2,0,0,0,.2.41,1.31,1.31,0,0,0,.36.3,1.21,1.21,0,0,0,.52.11,1,1,0,0,0,.88-.41,1.2,1.2,0,0,0,.2-.41,1.49,1.49,0,0,0,.07-.47,1.53,1.53,0,0,0-.07-.47,1.2,1.2,0,0,0-.2-.41,1,1,0,0,0-.36-.29,1.17,1.17,0,0,0-.52-.11,1.21,1.21,0,0,0-.52.11,1.12,1.12,0,0,0-.36.29,1.2,1.2,0,0,0-.2.41,1.91,1.91,0,0,0-.07.47,1.84,1.84,0,0,0,.07.47"/><polyline class="cls-1" points="58.24 34.12 58.24 36.8 59.95 36.8 59.95 37.04 57.95 37.04 57.95 34.12"/><rect class="cls-1" x="60.27" y="34.12" width="0.29" height="2.92"/><path class="cls-1" d="M62.25,34.12a1.44,1.44,0,0,1,1,.38,1.86,1.86,0,0,1,0,2.17,1.44,1.44,0,0,1-1,.37H61.19V34.12m.92,2.68a2.29,2.29,0,0,0,.56-.06.93.93,0,0,0,.39-.22.81.81,0,0,0,.23-.38,1.82,1.82,0,0,0,.07-.56,1.86,1.86,0,0,0-.07-.56.87.87,0,0,0-.23-.38.82.82,0,0,0-.39-.21,1.86,1.86,0,0,0-.56-.07h-.62V36.8Z"/><path class="cls-1" d="M65.34,34.12,66.54,37h-.31l-.37-.91H64.47L64.1,37h-.31L65,34.12m.74,1.78-.59-1.5-.61,1.5Z"/><path class="cls-1" d="M68.21,34.12a1.36,1.36,0,0,1,.36.05.76.76,0,0,1,.3.14.64.64,0,0,1,.27.57.81.81,0,0,1-.15.49.7.7,0,0,1-.44.26h0a.61.61,0,0,1,.25.07.51.51,0,0,1,.15.14.54.54,0,0,1,.1.2,2,2,0,0,1,0,.24c0,.05,0,.11,0,.18a1.64,1.64,0,0,0,0,.22,1.18,1.18,0,0,0,0,.2.35.35,0,0,0,.07.15H68.9a1,1,0,0,1,0-.1s0-.08,0-.12v-.13s0-.07,0-.1a1.55,1.55,0,0,0,0-.31.61.61,0,0,0-.08-.27.46.46,0,0,0-.5-.26h-1.1V37h-.29V34.12m1.38,1.39a.77.77,0,0,0,.25,0,.84.84,0,0,0,.21-.11.62.62,0,0,0,.14-.18.6.6,0,0,0,0-.24.54.54,0,0,0-.16-.42.66.66,0,0,0-.49-.16H67.11v1.15Z"/><rect class="cls-1" x="69.69" y="34.12" width="0.29" height="2.92"/><path class="cls-1" d="M70.55,35a1.13,1.13,0,0,1,.27-.49,1.1,1.1,0,0,1,.45-.33,1.36,1.36,0,0,1,.63-.13,1.38,1.38,0,0,1,.62.13,1.25,1.25,0,0,1,.45.33,1.37,1.37,0,0,1,.27.49,1.79,1.79,0,0,1,.09.57,1.85,1.85,0,0,1-.09.58,1.42,1.42,0,0,1-.27.48,1.25,1.25,0,0,1-.45.33,1.38,1.38,0,0,1-.62.13,1.36,1.36,0,0,1-.63-.13,1.1,1.1,0,0,1-.45-.33,1.15,1.15,0,0,1-.27-.48,1.85,1.85,0,0,1-.09-.58,1.79,1.79,0,0,1,.09-.57m.26,1a1.16,1.16,0,0,0,.57.71,1.14,1.14,0,0,0,.52.11,1.21,1.21,0,0,0,.52-.11,1.14,1.14,0,0,0,.35-.3,1.44,1.44,0,0,0,.21-.41,1.84,1.84,0,0,0,.06-.47,1.89,1.89,0,0,0-.06-.47,1.44,1.44,0,0,0-.21-.41,1,1,0,0,0-.35-.29,1.21,1.21,0,0,0-.52-.11,1.14,1.14,0,0,0-.52.11.94.94,0,0,0-.36.29,1.07,1.07,0,0,0-.21.41,1.89,1.89,0,0,0-.06.47,1.84,1.84,0,0,0,.06.47"/><path class="cls-1" d="M77.08,34.71a.85.85,0,0,0-.5-.36,1.06,1.06,0,0,0-.31-.05,1.14,1.14,0,0,0-.52.11.94.94,0,0,0-.36.29,1.44,1.44,0,0,0-.21.41,1.89,1.89,0,0,0-.06.47,1.84,1.84,0,0,0,.06.47,1.44,1.44,0,0,0,.21.41,1,1,0,0,0,.36.3,1.14,1.14,0,0,0,.52.11.92.92,0,0,0,.38-.08.79.79,0,0,0,.3-.2,1,1,0,0,0,.2-.29,1.56,1.56,0,0,0,.1-.37h.29a1.55,1.55,0,0,1-.14.49,1.19,1.19,0,0,1-.26.36,1.07,1.07,0,0,1-.38.24,1.53,1.53,0,0,1-.49.08,1.39,1.39,0,0,1-.63-.13,1.17,1.17,0,0,1-.45-.33,1.42,1.42,0,0,1-.27-.48,1.85,1.85,0,0,1-.09-.58,1.79,1.79,0,0,1,.09-.57,1.37,1.37,0,0,1,.27-.49,1.17,1.17,0,0,1,.45-.33,1.39,1.39,0,0,1,.63-.13,1.47,1.47,0,0,1,.42.06,1,1,0,0,1,.38.19,1.11,1.11,0,0,1,.28.29,1.06,1.06,0,0,1,.15.41h-.3a.68.68,0,0,0-.12-.3"/><path class="cls-1" d="M77.91,35a1.37,1.37,0,0,1,.27-.49,1.25,1.25,0,0,1,.45-.33,1.59,1.59,0,0,1,1.26,0,1.25,1.25,0,0,1,.45.33,1.37,1.37,0,0,1,.27.49,1.79,1.79,0,0,1,.09.57,1.85,1.85,0,0,1-.09.58,1.42,1.42,0,0,1-.27.48,1.25,1.25,0,0,1-.45.33,1.59,1.59,0,0,1-1.26,0,1.25,1.25,0,0,1-.45-.33,1.42,1.42,0,0,1-.27-.48,1.85,1.85,0,0,1-.09-.58,1.79,1.79,0,0,1,.09-.57m.27,1a1.2,1.2,0,0,0,.2.41,1,1,0,0,0,.88.41,1.21,1.21,0,0,0,.52-.11,1.14,1.14,0,0,0,.35-.3,1.07,1.07,0,0,0,.21-.41,1.84,1.84,0,0,0,.07-.47,1.91,1.91,0,0,0-.07-.47,1.07,1.07,0,0,0-.21-.41,1,1,0,0,0-.35-.29,1.21,1.21,0,0,0-.52-.11,1.17,1.17,0,0,0-.52.11,1,1,0,0,0-.36.29,1.2,1.2,0,0,0-.2.41,1.53,1.53,0,0,0-.07.47,1.49,1.49,0,0,0,.07.47"/><polyline class="cls-1" points="81.44 34.12 81.44 36.8 83.15 36.8 83.15 37.04 81.15 37.04 81.15 34.12"/><path class="cls-1" d="M83.37,35a1.37,1.37,0,0,1,.27-.49,1.25,1.25,0,0,1,.45-.33,1.42,1.42,0,0,1,.63-.13,1.39,1.39,0,0,1,.63.13,1.25,1.25,0,0,1,.45.33,1.37,1.37,0,0,1,.27.49,1.79,1.79,0,0,1,.09.57,1.85,1.85,0,0,1-.09.58,1.42,1.42,0,0,1-.27.48,1.25,1.25,0,0,1-.45.33,1.39,1.39,0,0,1-.63.13,1.42,1.42,0,0,1-.63-.13,1.25,1.25,0,0,1-.45-.33,1.42,1.42,0,0,1-.27-.48,1.85,1.85,0,0,1-.09-.58,1.79,1.79,0,0,1,.09-.57m.27,1a1.23,1.23,0,0,0,.21.41,1,1,0,0,0,.35.3,1.21,1.21,0,0,0,.52.11,1.14,1.14,0,0,0,.52-.11,1.18,1.18,0,0,0,.36-.3,1.2,1.2,0,0,0,.2-.41,1.49,1.49,0,0,0,.07-.47,1.53,1.53,0,0,0-.07-.47,1.2,1.2,0,0,0-.2-.41,1,1,0,0,0-.36-.29,1.14,1.14,0,0,0-.52-.11,1.21,1.21,0,0,0-.52.11.91.91,0,0,0-.35.29,1.23,1.23,0,0,0-.21.41,1.53,1.53,0,0,0-.07.47,1.49,1.49,0,0,0,.07.47"/><polyline class="cls-1" points="87.03 34.12 88.04 36.68 89.09 34.12 89.52 34.12 89.52 37.04 89.23 37.04 89.23 34.52 89.22 34.52 88.18 37.04 87.91 37.04 86.9 34.52 86.89 34.52 86.89 37.04 86.6 37.04 86.6 34.12"/><path class="cls-1" d="M91.41,34.12a1.5,1.5,0,0,1,.37,0,.88.88,0,0,1,.32.12.63.63,0,0,1,.21.22.68.68,0,0,1,.08.34.54.54,0,0,1,0,.22.56.56,0,0,1-.11.2.57.57,0,0,1-.16.15.58.58,0,0,1-.22.08h0a.75.75,0,0,1,.47.23.68.68,0,0,1,.18.48,1,1,0,0,1,0,.16.41.41,0,0,1,0,.18.58.58,0,0,1-.11.18.77.77,0,0,1-.19.16,1.46,1.46,0,0,1-.3.11,1.8,1.8,0,0,1-.43,0H90.12V34.12m1.29,1.28a.87.87,0,0,0,.3,0,.64.64,0,0,0,.22-.1.48.48,0,0,0,.13-.16.41.41,0,0,0,0-.19c0-.37-.23-.55-.69-.55h-1v1Zm0,1.4a1.56,1.56,0,0,0,.31,0,.74.74,0,0,0,.26-.1.49.49,0,0,0,.17-.18.56.56,0,0,0,.07-.3.47.47,0,0,0-.21-.42,1.11,1.11,0,0,0-.6-.14h-1V36.8Z"/><rect class="cls-1" x="92.99" y="34.12" width="0.29" height="2.92"/><path class="cls-1" d="M95.14,34.12,96.34,37H96l-.38-.91H94.26L93.9,37h-.31l1.23-2.92m.73,1.78L95,34.4l-.61,1.5Z"/><path class="cls-1" d="M7.18,9.87a9.21,9.21,0,0,1,13.17,0,9.36,9.36,0,0,1,0,13.19,9.24,9.24,0,0,1-13.17,0,9.38,9.38,0,0,1,0-13.19m11.3,1.87a6.77,6.77,0,0,0-4.73-2,6.57,6.57,0,0,0-4.66,2,6.66,6.66,0,0,0,0,9.44,6.53,6.53,0,0,0,4.66,2,6.73,6.73,0,0,0,4.73-11.43"/><path class="cls-1" d="M23.24,31.06v-.85l1.09-1.06c2.62-2.5,3.8-3.82,3.82-5.37a1.83,1.83,0,0,0-2-2,3.54,3.54,0,0,0-2.18.86l-.44-1a4.51,4.51,0,0,1,2.91-1.05,2.89,2.89,0,0,1,3.14,3c0,1.89-1.37,3.42-3.54,5.51l-.82.76v0h4.61v1.15"/><line class="cls-2" x1="0.25" y1="32.58" x2="96.19" y2="32.58"/></g></g></svg>