<svg xmlns="http://www.w3.org/2000/svg" viewBox="0 0 20.64 17.88"><defs><style>.cls-1{fill:#fdfdfd;}</style></defs><title>line-blue</title><g id="Capa_2" data-name="Capa 2"><g id="Pantalla_de_inicio" data-name="Pantalla de inicio"><g id="Footer"><path class="cls-1" d="M18,6.23c-.11,0-.14-.05-.15-.16s-.08-.48-.13-.71A6.9,6.9,0,0,0,12.1.09,17.61,17.61,0,0,0,9.48,0,5.67,5.67,0,0,0,8,.2,6.88,6.88,0,0,0,2.81,6c0,.14-.05.18-.2.2A3,3,0,0,0,0,9.07c0,.83,0,1.66,0,2.5A3,3,0,0,0,2.56,14.4c.64.09,1.29,0,1.93,0s1-.26,1-1c0-2.14,0-4.27,0-6.41,0-.58-.25-.83-.84-.83H4.33c-.1,0-.15,0-.13-.13a5.52,5.52,0,0,1,4.51-4.6A13.81,13.81,0,0,1,11,1.38a5.49,5.49,0,0,1,5.43,4.81h-.62a.68.68,0,0,0-.7.69v6.88a.67.67,0,0,0,.68.68h.58a2.71,2.71,0,0,1-1.76,1.92,7.61,7.61,0,0,1-2.18.15c-.09,0-.07-.07-.07-.12v-.54a.71.71,0,0,0-.7-.72.69.69,0,0,0-.68.73v1.27a.69.69,0,0,0,.77.75h2a4.12,4.12,0,0,0,4.07-3.31A.18.18,0,0,1,18,14.4a3,3,0,0,0,2.67-3V9.28A3,3,0,0,0,18,6.23ZM3.91,13.07a8,8,0,0,1-1.2,0,1.6,1.6,0,0,1-1.32-1.57q0-1.14,0-2.28A1.62,1.62,0,0,1,3,7.57c.32,0,.64,0,1,0,.15,0,.17.05.17.18,0,.86,0,1.72,0,2.58s0,1.69,0,2.54C4.14,13.05,4.09,13.08,3.91,13.07Zm15.35-1.58a1.63,1.63,0,0,1-1.59,1.58h-1c-.14,0-.17,0-.17-.17,0-.86,0-1.72,0-2.58s0-1.72,0-2.58c0-.14,0-.18.17-.18A10.71,10.71,0,0,1,18,7.6a1.62,1.62,0,0,1,1.31,1.55Q19.27,10.32,19.26,11.49Z"/></g></g></g></svg>