<svg xmlns="http://www.w3.org/2000/svg" viewBox="0 0 249.25 59.69"><defs><style>.cls-1{fill:#b88e32;}.cls-2{fill:#dec76d;}.cls-3{fill:#e3b93f;}.cls-4{fill:#2a344c;}.cls-5{fill:#6393ba;}.cls-6{fill:#1e4b86;}</style></defs><title>logo</title><g id="Capa_2" data-name="Capa 2"><g id="Pantalla_de_inicio" data-name="Pantalla de inicio"><g id="Cabecera"><path class="cls-1" d="M17.56,41.48A1.54,1.54,0,0,1,16,40.36c-.14-.71,1.35-5.41,1.35-5.41a4.15,4.15,0,0,1-1,.23s-.61,1.78-.79,2.42-.66,2.44-.26,3a2.55,2.55,0,0,0,2.29.84"/><path class="cls-1" d="M17,17a1.34,1.34,0,0,0-.14-1.07C13.52,11.34,12.65,14.69,1.69,13A1.68,1.68,0,0,1,.56,10.86c-1.23,1.79-.16,3,.64,3.28C2.66,14.64,17,17,17,17"/><path class="cls-1" d="M18.22,16.16c3.45.92,3,5.15,2.51,7a105.71,105.71,0,0,1-3.15,10.51,5.68,5.68,0,0,1-.93.15s2.15-7,2.93-10c1.47-5.67-1.16-6.43-1.14-6.59a1.89,1.89,0,0,0-.22-1"/><path class="cls-2" d="M.43,11.23A1.29,1.29,0,0,1,1,10.39a7.23,7.23,0,0,1,2.56-.56A25.64,25.64,0,0,1,7.7,9.68l1.43.08S10.52,10,14.19,13a19.12,19.12,0,0,1,2.71,2.93S2.12,13.82,1,13a1.81,1.81,0,0,1-.63-1.17,2.31,2.31,0,0,1,0-.4"/><path class="cls-2" d="M17.35,35a14.81,14.81,0,0,0,2.56-.81A43.43,43.43,0,0,0,24,31.81s-1.64,3.56-2.14,4.46-2.67,4.54-3.47,5a1.71,1.71,0,0,1-2.12-.33c-.38-.5-.36-1.1-.07-2.29S17.35,35,17.35,35"/><path class="cls-3" d="M10.78,9.66s4.65.51,7.08,1,8.22,1.88,9.6,2.9,1.38,1.53.83,4.32a44.46,44.46,0,0,1-1.94,6.74c-2,5.61-2.21,5.72-2.21,5.72a15,15,0,0,1-3.39,2.16,12.45,12.45,0,0,1-3.17,1.16s1.8-5.6,2.13-6.87A32.77,32.77,0,0,0,21,20.55a4.64,4.64,0,0,0-2.73-4.29,14.81,14.81,0,0,0-4.5-4.86,20.26,20.26,0,0,0-3-1.74"/><path class="cls-4" d="M29.78,39.52a1.91,1.91,0,0,1-1.93-1.39c-.18-.88,1.67-6.72,1.67-6.72a5.31,5.31,0,0,1-1.28.28s-.75,2.21-1,3c-.18.63-.82,3-.32,3.77a3.19,3.19,0,0,0,2.84,1.05"/><path class="cls-4" d="M29.13,9.06A1.63,1.63,0,0,0,29,7.74c-4.19-5.63-5.28-1.48-18.87-3.53a2.07,2.07,0,0,1-1.4-2.7c-1.54,2.21-.21,3.72.79,4.07,1.81.62,19.65,3.48,19.65,3.48"/><path class="cls-4" d="M30.6,8.08c4.28,1.15,3.69,6.39,3.12,8.69a133.38,133.38,0,0,1-3.91,13.05,8,8,0,0,1-1.16.19s2.67-8.73,3.64-12.46c1.82-7-1.44-8-1.42-8.17a2.37,2.37,0,0,0-.27-1.3"/><path class="cls-5" d="M8.51,2a1.69,1.69,0,0,1,.71-1,9,9,0,0,1,3.17-.7A33.19,33.19,0,0,1,17.54,0l1.78.1s1.73.23,6.28,4A24.14,24.14,0,0,1,29,7.74S10.62,5.19,9.22,4.11a2.26,2.26,0,0,1-.78-1.45,4.81,4.81,0,0,1,0-.5"/><path class="cls-5" d="M29.52,31.41a18.38,18.38,0,0,0,3.18-1,54.06,54.06,0,0,0,5-2.9s-2,4.41-2.65,5.54-3.32,5.64-4.32,6.18a2.12,2.12,0,0,1-2.62-.4c-.48-.64-.45-1.38-.09-2.86s1.45-4.56,1.45-4.56"/><path class="cls-6" d="M21.37,0s5.77.64,8.78,1.27S40.36,3.6,42.07,4.87s1.72,1.9,1,5.36a53.69,53.69,0,0,1-2.41,8.37c-2.46,7-2.74,7.1-2.74,7.1a18.91,18.91,0,0,1-4.21,2.69,15.31,15.31,0,0,1-3.93,1.43s2.23-6.95,2.64-8.53,1.56-5.39,1.6-7.75a5.76,5.76,0,0,0-3.39-5.33,18.48,18.48,0,0,0-5.57-6A26,26,0,0,0,21.37,0"/><rect class="cls-6" x="35.62" y="45.46" width="205.13" height="0.63"/><path class="cls-6" d="M48.19,19.47H61.44a6.4,6.4,0,0,1,.64,0,.38.38,0,0,1,.36.22.75.75,0,0,1,0,.41,5.61,5.61,0,0,1-.22.59l-.32.64c-.11.21-.21.42-.3.6s-.13.29-.18.43a3.73,3.73,0,0,1-.2.4l-.25.29a.87.87,0,0,1-.27.23,1.78,1.78,0,0,1-.93.17h-7l-1.18,0a2.52,2.52,0,0,0-1.08.17,1.88,1.88,0,0,0-.52.46,2.34,2.34,0,0,0-.3.55c-.1.23-.18.42-.26.59l-.69,1.47c0,.11-.11.23-.19.37a1.9,1.9,0,0,0-.15.37l-.16.34a3.73,3.73,0,0,0-.08.46.28.28,0,0,0,.2.28.9.9,0,0,0,.33.07l.45,0H54.6l.58,0h.65l.56.05a.57.57,0,0,1,.33.12c.13.15.1.42-.09.82s-.37.76-.53,1.09c-.07.16-.15.34-.23.54a2.86,2.86,0,0,1-.3.54,1.84,1.84,0,0,1-.55.46,2.27,2.27,0,0,1-.88.1h-6c-.39,0-.77,0-1.15,0a1.22,1.22,0,0,0-.91.43.74.74,0,0,0-.16.2.82.82,0,0,1-.12.2l-.14.31-.22.46-.39.83-2,4.33-.48,1.06a2.7,2.7,0,0,1-.56.91.75.75,0,0,1-.34.2l-.35.11a1.31,1.31,0,0,1-.48,0,3.64,3.64,0,0,0-.48,0H38.51l-.62,0a.51.51,0,0,1-.4-.16c-.1-.11-.1-.27,0-.48s.19-.44.29-.67L39,37.39l5.24-11.25,2.1-4.49c.13-.28.28-.62.45-1a2.42,2.42,0,0,1,.53-.83,1.32,1.32,0,0,1,.6-.31.22.22,0,0,1,.13,0,.2.2,0,0,0,.13,0"/><path class="cls-6" d="M65,19.47h3.28a.33.33,0,0,1,.35.24.84.84,0,0,1-.09.55c-.09.22-.2.47-.33.74L67,23.68,62,34.35l-2.35,5c-.12.27-.26.56-.4.89a2.06,2.06,0,0,1-.48.74,1.62,1.62,0,0,1-.71.34,1.3,1.3,0,0,1-.48,0,3.59,3.59,0,0,0-.47,0H55.31a6,6,0,0,1-.62,0,.52.52,0,0,1-.39-.19.59.59,0,0,1,0-.46,6.48,6.48,0,0,1,.27-.65l1.24-2.67,5.24-11.22,2.09-4.49.46-1a2.42,2.42,0,0,1,.52-.83,1.56,1.56,0,0,1,.54-.31l.18,0H65"/><path class="cls-6" d="M72.8,19.44h2.49l.67,0a.89.89,0,0,1,.52.11.51.51,0,0,1,.3.37c0,.16.07.33.1.49l.29,1.75c.17,1.17.35,2.34.54,3.49l.54,3.49c.09.56.17,1.11.25,1.68s.17,1.11.29,1.64l.06.37a.71.71,0,0,0,.13.34.53.53,0,0,0,.1.12s.1,0,.18,0a.51.51,0,0,0,.35-.27,4,4,0,0,1,.27-.47,3,3,0,0,0,.24-.47l.22-.51.91-1.94,3.32-7.13.55-1.17c0-.1.09-.2.12-.3a1.25,1.25,0,0,1,.15-.28l.16-.34a1.84,1.84,0,0,1,.5-.67.9.9,0,0,1,.53-.25,5.53,5.53,0,0,1,.61,0h2.37a1.12,1.12,0,0,1,.4.06q.33.15.18.54c-.1.26-.23.56-.4.9l-1.57,3.39-6,12.88L81,39.79c-.11.22-.21.45-.3.68a1.48,1.48,0,0,1-.35.52,1,1,0,0,1-.4.23l-.47.11h-3.3a.78.78,0,0,1-.41-.09.66.66,0,0,1-.32-.42,4.12,4.12,0,0,1-.11-.57c0-.29-.09-.58-.13-.87s-.08-.59-.13-.88l-1.17-7.38c-.07-.47-.13-.92-.21-1.37s-.14-.9-.2-1.36c0-.15-.07-.33-.11-.55a.34.34,0,0,0-.38-.32,1.23,1.23,0,0,0-.49.5c-.1.18-.21.42-.35.7l-1,2.15L67.7,38.22l-.56,1.2-.13.31a.81.81,0,0,1-.19.31l-.15.34a2.17,2.17,0,0,1-.49.7.93.93,0,0,1-.51.22,5.66,5.66,0,0,1-.61,0H62.69a1.09,1.09,0,0,1-.4-.06.4.4,0,0,1-.19-.56c.09-.26.22-.57.38-.92l1.65-3.53,5.75-12.33,1.33-2.86c.11-.23.22-.46.33-.71a2,2,0,0,1,.4-.58,1.26,1.26,0,0,1,.57-.31l.15,0h.14"/><path class="cls-6" d="M103,18.92a7.84,7.84,0,0,1,4.81,1.1,4.74,4.74,0,0,1,1.87,3.1,4.81,4.81,0,0,1,.06,1.07,11.76,11.76,0,0,1-.16,1.18c0,.15-.06.31-.1.49a1.36,1.36,0,0,1-.28.53.61.61,0,0,1-.33.23l-.44.1h-.25a1,1,0,0,1-.43.05l-.44,0-.67,0q-.39,0-.75,0a5.78,5.78,0,0,1-.65-.06.91.91,0,0,1-.4-.14.82.82,0,0,1-.09-.58,2,2,0,0,0,0-.65,2.37,2.37,0,0,0-.79-1.6,3.68,3.68,0,0,0-1.14-.64,3.08,3.08,0,0,0-1.22-.19,5.82,5.82,0,0,0-1.44.16l-.5.1a3.59,3.59,0,0,0-.48.14,10.45,10.45,0,0,0-4.33,3c-.21.25-.43.51-.63.77l-.66.83-.25.4-.25.4a1.29,1.29,0,0,0-.23.39,1.9,1.9,0,0,1-.23.41,2.16,2.16,0,0,0-.29.51c-.07.17-.14.34-.22.51s-.08.16-.13.24a.77.77,0,0,0-.1.25l-.13.27a.69.69,0,0,1-.09.31.75.75,0,0,0-.1.31,3.38,3.38,0,0,0-.17.49l-.17.63a4.08,4.08,0,0,0-.11.57,5.43,5.43,0,0,0,.08,2.2,2.67,2.67,0,0,0,1.09,1.49,3.08,3.08,0,0,0,.58.26l.69.23.27.05h.54a.75.75,0,0,0,.37.05,3.47,3.47,0,0,0,.42-.05,1.21,1.21,0,0,0,.3,0l.74-.12a3.56,3.56,0,0,0,.73-.22,6.88,6.88,0,0,0,1.6-.81,11.8,11.8,0,0,0,1.44-1.16,6.72,6.72,0,0,0,.63-.67c.19-.25.4-.49.62-.74s.32-.43.47-.61a1.41,1.41,0,0,1,.6-.43,1.46,1.46,0,0,1,.49-.06h3a.59.59,0,0,1,.42.12c.1.1.1.26,0,.49a3.18,3.18,0,0,1-.38.64l-.57.83c-.25.31-.49.61-.71.9s-.48.56-.74.83a5.2,5.2,0,0,0-.47.47,4.78,4.78,0,0,1-.45.45,16.6,16.6,0,0,1-6.64,3.69,6.06,6.06,0,0,1-.77.18l-.73.13a.73.73,0,0,1-.31,0,.78.78,0,0,0-.32,0h-.42l-.44,0h-1a1.83,1.83,0,0,1-.49-.06,1,1,0,0,0-.3,0l-.4-.06-.43-.07a5.26,5.26,0,0,0-.53-.15l-.53-.15L89,41.1c-.15-.08-.29-.15-.41-.23a4.86,4.86,0,0,1-2.12-2.14,6.61,6.61,0,0,1-.6-3.18,5.66,5.66,0,0,1,.13-.92c.06-.31.11-.63.16-1a.91.91,0,0,1,.06-.26.9.9,0,0,0,.08-.23c0-.18.11-.38.18-.58a5.55,5.55,0,0,0,.18-.59.53.53,0,0,1,.08-.26.92.92,0,0,0,.09-.23l.27-.58a1.58,1.58,0,0,1,.15-.46,2.31,2.31,0,0,1,.28-.47.49.49,0,0,0,.11-.2.91.91,0,0,1,.06-.16l.13-.28a3.46,3.46,0,0,0,.32-.52l.31-.56c.11-.16.22-.32.31-.47a4.45,4.45,0,0,1,.32-.48c.21-.29.42-.57.61-.85a7.46,7.46,0,0,1,.61-.78c.22-.27.45-.53.69-.8s.48-.51.73-.74c.59-.57,1.17-1.08,1.73-1.53a6,6,0,0,1,.52-.4l.55-.37a18.62,18.62,0,0,1,2.22-1.31,19.84,19.84,0,0,1,2.37-1c.3-.1.59-.19.89-.26l.93-.2a1.43,1.43,0,0,1,.39-.06,1.15,1.15,0,0,0,.37-.06l.5-.05.5,0a.19.19,0,0,1,.15,0,.19.19,0,0,0,.15,0"/><path class="cls-6" d="M130.57,29.64a2.79,2.79,0,0,1-.22.63,2.45,2.45,0,0,1-.34.63l-.18.4a4.13,4.13,0,0,0-.36.65,7.73,7.73,0,0,1-.38.68,3,3,0,0,0-.29.43c-.09.14-.19.28-.3.43l-.79,1.07c-.26.35-.53.69-.83,1a20.13,20.13,0,0,1-4.16,3.58,18.66,18.66,0,0,1-4.89,2.2,6.06,6.06,0,0,1-.77.18l-.73.13a1.12,1.12,0,0,1-.35.06,1.87,1.87,0,0,0-.34,0l-1.06.09a2.51,2.51,0,0,1-.44,0,2.11,2.11,0,0,1-.37,0,.71.71,0,0,0-.29,0,1.32,1.32,0,0,1-.28,0h-.34a2.31,2.31,0,0,0-.43-.08,3.34,3.34,0,0,1-.42-.07,3.54,3.54,0,0,0-.44-.11l-.44-.11c-.19-.08-.38-.17-.58-.24a4.21,4.21,0,0,1-.56-.29,4.82,4.82,0,0,1-2.13-2.13,6.61,6.61,0,0,1-.59-3.18,6.09,6.09,0,0,1,.11-.91c.07-.32.13-.64.18-1a.91.91,0,0,1,.06-.26,1.55,1.55,0,0,0,.08-.23,2.57,2.57,0,0,1,.11-.44,4.27,4.27,0,0,0,.13-.48,1.48,1.48,0,0,1,.12-.29.49.49,0,0,0,.08-.27,2.13,2.13,0,0,1,.18-.38,1.85,1.85,0,0,0,.18-.38,1.63,1.63,0,0,1,.16-.48,2.17,2.17,0,0,1,.28-.48,1.09,1.09,0,0,0,.14-.29.85.85,0,0,1,.14-.29l.08-.18a1.85,1.85,0,0,0,.24-.42,1.38,1.38,0,0,1,.23-.38,1.67,1.67,0,0,0,.21-.33,1.26,1.26,0,0,1,.21-.32c.27-.35.51-.69.73-1a9.53,9.53,0,0,1,.74-1c.32-.35.64-.69,1-1a10.17,10.17,0,0,1,1-1,20,20,0,0,1,3.27-2.46,20.33,20.33,0,0,1,3.7-1.69,8.42,8.42,0,0,1,1-.24c.33-.06.65-.14,1-.22a1,1,0,0,1,.32-.06l.31,0,1-.09a.25.25,0,0,1,.17,0,.25.25,0,0,0,.17,0,9.59,9.59,0,0,1,3.57.44,5.79,5.79,0,0,1,2.21,1.4q.27.29.54.63a2.47,2.47,0,0,1,.37.72c0,.11.11.21.16.33a2.56,2.56,0,0,1,.12.32l.21,1a4.78,4.78,0,0,1,.08,1.09c0,.29,0,.56-.07.83s-.07.55-.11.86a4.75,4.75,0,0,1-.14.63q-.09.33-.15.66a2,2,0,0,1-.13.42,1,1,0,0,0-.12.38,1.37,1.37,0,0,1-.13.39,1.49,1.49,0,0,0-.16.35Zm-5.36,1.3a2.84,2.84,0,0,0,.26-.45,1.45,1.45,0,0,0,.15-.45l.24-.52a.67.67,0,0,1,.1-.23.46.46,0,0,0,.06-.23,2.9,2.9,0,0,1,.14-.48,2,2,0,0,0,.13-.44,1.22,1.22,0,0,0,.1-.34c0-.22.09-.45.13-.68a3.81,3.81,0,0,0,.07-.67,3.57,3.57,0,0,0-.77-2.54,3.93,3.93,0,0,0-3.1-1,.24.24,0,0,1-.14,0,.26.26,0,0,0-.15,0,.74.74,0,0,1-.25,0,.59.59,0,0,0-.3.05l-.73.13a7,7,0,0,0-.69.2,9.53,9.53,0,0,0-2.76,1.54,15.84,15.84,0,0,0-2.32,2.37c-.16.22-.31.44-.44.66l-.45.66a1.18,1.18,0,0,0-.14.23,1.18,1.18,0,0,1-.14.23,1,1,0,0,0-.19.34,1.47,1.47,0,0,1-.15.34,2.78,2.78,0,0,0-.35.57,1.81,1.81,0,0,0-.21.56l-.16.34a2.13,2.13,0,0,1-.09.27.69.69,0,0,0-.09.25l-.1.24a1.78,1.78,0,0,1-.09.23,5.48,5.48,0,0,1-.17.67,2.82,2.82,0,0,0-.14.65,7.51,7.51,0,0,0,0,1.83,2.3,2.3,0,0,0,.59,1.37.7.7,0,0,0,.21.24,3.15,3.15,0,0,0,.27.19,1.82,1.82,0,0,0,.56.34l.7.24a.49.49,0,0,0,.27.05.94.94,0,0,1,.29,0,.93.93,0,0,0,.34.06h.64a1,1,0,0,1,.29,0,.77.77,0,0,0,.3-.05l.66-.1a4,4,0,0,0,.66-.17,9.69,9.69,0,0,0,2.71-1.36A13.64,13.64,0,0,0,123.22,34a4.69,4.69,0,0,0,.57-.74c.18-.26.37-.53.57-.8l.44-.74a1.28,1.28,0,0,0,.15-.25l.14-.3Z"/><path class="cls-3" d="M138.21,19.44h5a.89.89,0,0,1,.69.21.55.55,0,0,1,.09.45c0,.2,0,.38-.08.57s-.06.66-.11,1-.09.68-.13,1c-.12,1.29-.29,2.6-.49,3.93s-.36,2.66-.48,4a11.43,11.43,0,0,1-.16,1.26,11.43,11.43,0,0,0-.16,1.26c0,.1,0,.2,0,.31a.27.27,0,0,0,.1.24l.1.06s.07,0,.13,0a.88.88,0,0,0,.51-.37l.45-.55c.38-.47.75-.94,1.09-1.4s.72-.93,1.1-1.4l3-3.76c1-1.27,2-2.53,3-3.8.25-.33.5-.65.76-1s.5-.64.75-1l.42-.49a1.61,1.61,0,0,1,.52-.4,1.08,1.08,0,0,1,.55-.15h5.29a.47.47,0,0,1,.38.12c.17.12.18.35,0,.69s-.31.69-.48,1l-2.15,4.62-5.33,11.43L151.33,40c-.1.22-.21.44-.32.66a1.14,1.14,0,0,1-.42.47,1.1,1.1,0,0,1-.54.17l-.63,0h-2.3a2.76,2.76,0,0,0-.37-.09.26.26,0,0,1-.19-.22.51.51,0,0,1,.06-.4c.08-.16.16-.34.24-.52l.73-1.57,3.69-7.9c.11-.29.23-.56.35-.81s.24-.52.36-.79.16-.33.26-.51a1.78,1.78,0,0,0,.18-.5,2,2,0,0,1,.16-.47c.07-.16.06-.26,0-.3a.16.16,0,0,0-.16,0l-.12.09a1.81,1.81,0,0,0-.33.29l-.29.33c-.27.3-.53.62-.8,1s-.53.65-.81,1c-.1.12-.19.25-.28.37a3.38,3.38,0,0,1-.31.37c-.23.27-.44.53-.65.8s-.42.53-.65.8a.55.55,0,0,0-.15.2.74.74,0,0,1-.16.2,6.61,6.61,0,0,0-.47.58,5.7,5.7,0,0,1-.52.62c-.16.18-.32.38-.47.58a6.89,6.89,0,0,1-.49.61c-.52.6-1,1.2-1.48,1.8s-.95,1.21-1.45,1.8a.62.62,0,0,0-.15.19.6.6,0,0,1-.15.18,8.66,8.66,0,0,0-.57.69,7.28,7.28,0,0,1-.57.7l-.35.4a1.4,1.4,0,0,1-.38.3.9.9,0,0,1-.37.14l-.4.08H138.8l-.59,0a4.22,4.22,0,0,1-.53,0,.5.5,0,0,1-.31-.12.46.46,0,0,1-.17-.36v-.47c0-.25.05-.5.09-.76a5.1,5.1,0,0,0,.09-.75l0-.28a5.66,5.66,0,0,1,.09-.78,5.8,5.8,0,0,0,.09-.79l0-.17a.41.41,0,0,0,0-.16,3,3,0,0,1,0-.59,4.22,4.22,0,0,0,.07-.61.55.55,0,0,1,0-.16.44.44,0,0,0,0-.15,6,6,0,0,1,.09-.61A3.34,3.34,0,0,0,138,34a12.36,12.36,0,0,1,.14-1.29c.06-.45.12-.9.15-1.32s.13-1,.21-1.57a10.61,10.61,0,0,0,.14-1.54,3.24,3.24,0,0,0,0-.71l-.08-.1s-.08,0-.16,0a.69.69,0,0,0-.3.31,2,2,0,0,1-.26.43,1.66,1.66,0,0,0-.25.45c-.07.15-.13.31-.21.47l-.32.68a7,7,0,0,1-.34.67l-3.81,8.18-.71,1.51c-.07.16-.15.33-.23.49a.89.89,0,0,1-.31.4,1.13,1.13,0,0,1-.58.28,1.65,1.65,0,0,1-.49,0h-2.08l-.61,0a.46.46,0,0,1-.38-.17c-.08-.1-.07-.26,0-.47s.17-.44.27-.66L129,37.3l5.33-11.44,2-4.3.21-.44q.12-.27.24-.51c.08-.17.16-.32.25-.48a1.86,1.86,0,0,1,.26-.35,1.33,1.33,0,0,1,.63-.31.23.23,0,0,1,.13,0,.23.23,0,0,0,.14,0"/><path class="cls-3" d="M164.66,19.44h14.17q.38,0,.69,0c.22,0,.34.1.38.25a.53.53,0,0,1,0,.21.73.73,0,0,0,0,.25l-.16.33a2.28,2.28,0,0,1-.2.47c-.09.16-.16.32-.23.46a3.67,3.67,0,0,0-.2.47,3.17,3.17,0,0,1-.23.45,2.65,2.65,0,0,0-.24.46,1.41,1.41,0,0,1-.54.49,1.06,1.06,0,0,1-.52.13h-8.27l-.56,0c-.21,0-.42,0-.64,0a5.63,5.63,0,0,0-.63.06,1.46,1.46,0,0,0-.47.14,1.19,1.19,0,0,0-.47.45,6.6,6.6,0,0,0-.35.66l-.82,1.75-.41.89c0,.16-.06.3-.08.41a.26.26,0,0,0,.1.26.5.5,0,0,0,.36.14,4.35,4.35,0,0,0,.52,0h6.95c.14,0,.32,0,.54,0h.63l.55.05a.48.48,0,0,1,.32.12c.08.06.09.19.05.37a4.22,4.22,0,0,1-.2.6c-.09.22-.2.44-.31.66s-.21.42-.29.59-.13.28-.2.43a1.66,1.66,0,0,1-.23.37,1.45,1.45,0,0,1-.43.39,1.35,1.35,0,0,1-.48.13,5.47,5.47,0,0,1-.6,0c-.21,0-.42,0-.63,0h-6.53c-.25,0-.48,0-.7,0a3.39,3.39,0,0,0-.64,0,2.19,2.19,0,0,0-.58.19,1.56,1.56,0,0,0-.49.41,2.11,2.11,0,0,0-.18.33l-.15.32-.55,1.17-.8,1.72a6.8,6.8,0,0,0-.26.66.43.43,0,0,0,.06.45.24.24,0,0,0,.17.11.77.77,0,0,1,.26.07h.31a1.12,1.12,0,0,0,.33,0l.34,0h9.18a.65.65,0,0,1,.37.09.3.3,0,0,1,.18.34,1.23,1.23,0,0,1-.09.37c-.06.15-.12.3-.2.46L170.84,40c-.12.24-.23.47-.35.69a1.13,1.13,0,0,1-.5.47,1,1,0,0,1-.55.16H155a5.06,5.06,0,0,1-.74,0,.36.36,0,0,1-.34-.29.87.87,0,0,1,.1-.48l.27-.57,1-2.21,3.9-8.36,3.12-6.7.89-1.91c.09-.18.17-.37.26-.55a1.14,1.14,0,0,1,.33-.43,1.22,1.22,0,0,1,.6-.31.21.21,0,0,1,.13,0,.2.2,0,0,0,.13,0"/><path class="cls-3" d="M191,40.65a.63.63,0,0,1-.18.34,1.52,1.52,0,0,1-.26.22,1.06,1.06,0,0,1-.58.13h-2.34a6.53,6.53,0,0,1-.84,0,.4.4,0,0,1-.39-.35,1.88,1.88,0,0,1,.18-1,7.48,7.48,0,0,0,.36-1.11c0-.08.07-.16.1-.23a.93.93,0,0,1,.08-.2,3.52,3.52,0,0,1,.27-.79,5.18,5.18,0,0,0,.29-.75,1.66,1.66,0,0,1,.09-.28c.07-.22.14-.45.22-.69a6.5,6.5,0,0,0,.19-.69,5.29,5.29,0,0,0,0-1.26,1.09,1.09,0,0,0-.57-.83,1.14,1.14,0,0,0-.26-.09,2,2,0,0,1-.3-.09,3.12,3.12,0,0,0-1.19-.19h-4l-.47.09A.79.79,0,0,0,181,33a2.28,2.28,0,0,0-.66.95c-.18.43-.35.82-.52,1.17L178,39.08l-.25.51c-.1.17-.18.34-.26.51l-.2.44a1.85,1.85,0,0,1-.23.36,1.06,1.06,0,0,1-.54.37,1.29,1.29,0,0,1-.4.06h-2.9c-.37,0-.61-.05-.73-.2s-.11-.29,0-.57l.38-.81,8.71-18.69c.11-.23.21-.46.32-.71a1.48,1.48,0,0,1,.41-.58,1.47,1.47,0,0,1,.6-.31.26.26,0,0,1,.15,0,.23.23,0,0,0,.14,0h11.39a3.76,3.76,0,0,1,.79.11.65.65,0,0,0,.29.06.67.67,0,0,1,.3.06l.37.13a2.28,2.28,0,0,1,.36.15,3.69,3.69,0,0,1,1,.83,2.51,2.51,0,0,1,.54,1.14.7.7,0,0,1,.05.32,1.2,1.2,0,0,0,0,.33,3,3,0,0,1,0,.89c-.07.3-.13.64-.2,1a.87.87,0,0,1-.1.25A.44.44,0,0,0,198,25l-.13.28a2.55,2.55,0,0,1-.24.6l-.36.57a2.5,2.5,0,0,0-.27.44,2.83,2.83,0,0,1-.26.42l-.71.88a8.08,8.08,0,0,1-.77.78l-.25.2-.24.2-.32.24a2.1,2.1,0,0,1-.33.22l-.51.31-.54.3-.34.2a1.58,1.58,0,0,0-.31.26c-.1.13-.13.23-.08.31a.48.48,0,0,0,.13.19l.38.49a1.27,1.27,0,0,1,.25.58,3.25,3.25,0,0,1,.09,1.08,12.14,12.14,0,0,1-.19,1.26,4,4,0,0,1-.2.58,4,4,0,0,0-.19.59,3.35,3.35,0,0,0-.15.35l-.15.35a1.18,1.18,0,0,1-.11.27,1.48,1.48,0,0,0-.12.29.82.82,0,0,1-.1.24,1,1,0,0,0-.11.28,4.59,4.59,0,0,1-.24.64,3.49,3.49,0,0,0-.24.65l-.17.56c0,.18-.09.37-.13.55s-.09.36-.12.52m1.39-13.86a4.11,4.11,0,0,0,.4-.84,7.34,7.34,0,0,0,.24-.73.41.41,0,0,1,0-.22.28.28,0,0,0,0-.18,1.31,1.31,0,0,0-.7-1.38,2.23,2.23,0,0,0-1.08-.28c-.44,0-.9,0-1.4,0h-3.56a.19.19,0,0,1-.15,0h-.11a1.24,1.24,0,0,0-.64.31,1.72,1.72,0,0,0-.43.63l-.33.75-1.34,2.86c-.11.24-.23.49-.34.74a.92.92,0,0,0-.12.58.33.33,0,0,0,.28.25,4.18,4.18,0,0,0,.58.09,5.31,5.31,0,0,0,.7,0h2.92a1.33,1.33,0,0,0,.45,0h.4a2.34,2.34,0,0,1,.5-.06,2,2,0,0,0,.48-.06,7.67,7.67,0,0,0,1.11-.4,4.57,4.57,0,0,0,1-.65,4.12,4.12,0,0,0,.57-.61l.54-.77"/><path class="cls-3" d="M212.86,18.92a7.79,7.79,0,0,1,4.8,1.1,4.71,4.71,0,0,1,1.87,3.1,4.28,4.28,0,0,1,.06,1.07,9.29,9.29,0,0,1-.15,1.18c0,.15-.06.31-.1.49a1.36,1.36,0,0,1-.28.53.63.63,0,0,1-.34.23l-.43.1H218a1,1,0,0,1-.43.05l-.44,0-.67,0c-.26,0-.51,0-.76,0a5.59,5.59,0,0,1-.64-.06.91.91,0,0,1-.4-.14.82.82,0,0,1-.1-.58,1.77,1.77,0,0,0,0-.65,2.41,2.41,0,0,0-.79-1.6,3.62,3.62,0,0,0-1.15-.64,3.08,3.08,0,0,0-1.22-.19,5.94,5.94,0,0,0-1.44.16l-.49.1a3.59,3.59,0,0,0-.48.14,10.39,10.39,0,0,0-4.33,3c-.22.25-.43.51-.64.77s-.42.55-.66.83l-.25.4c-.07.13-.16.26-.25.4a1.5,1.5,0,0,0-.22.39,1.61,1.61,0,0,1-.24.41,2.58,2.58,0,0,0-.29.51c-.06.17-.14.34-.21.51l-.13.24a.77.77,0,0,0-.1.25l-.13.27a.71.71,0,0,1-.1.31.75.75,0,0,0-.1.31,3.53,3.53,0,0,0-.16.49c-.07.23-.12.44-.17.63s-.09.38-.12.57a5.41,5.41,0,0,0,.09,2.2,2.65,2.65,0,0,0,1.08,1.49,3.18,3.18,0,0,0,.59.26l.69.23.27.05h.53a.79.79,0,0,0,.38.05,3.47,3.47,0,0,0,.42-.05,1.12,1.12,0,0,0,.29,0l.75-.12a3.56,3.56,0,0,0,.73-.22,6.88,6.88,0,0,0,1.6-.81,12.62,12.62,0,0,0,1.44-1.16,6.64,6.64,0,0,0,.62-.67c.2-.25.4-.49.62-.74l.47-.61a1.41,1.41,0,0,1,.6-.43,1.53,1.53,0,0,1,.49-.06h3a.59.59,0,0,1,.42.12c.1.1.1.26,0,.49a2.77,2.77,0,0,1-.38.64L215,35l-.7.9a9.69,9.69,0,0,1-.75.83,5,5,0,0,0-.46.47,4.91,4.91,0,0,1-.46.45A16.47,16.47,0,0,1,206,41.36a5.93,5.93,0,0,1-.76.18l-.73.13a.78.78,0,0,1-.32,0,.76.76,0,0,0-.31,0h-.42l-.44,0h-1a1.85,1.85,0,0,1-.5-.06.93.93,0,0,0-.29,0l-.4-.06-.44-.07a5.08,5.08,0,0,0-.52-.15,5.26,5.26,0,0,1-.53-.15l-.46-.2-.42-.23a4.86,4.86,0,0,1-2.12-2.14,6.73,6.73,0,0,1-.59-3.18,7,7,0,0,1,.12-.92c.06-.31.12-.63.17-1a.91.91,0,0,1,.06-.26,1.55,1.55,0,0,0,.08-.23,3.81,3.81,0,0,1,.18-.58c.07-.21.13-.4.18-.59a.53.53,0,0,1,.07-.26.92.92,0,0,0,.09-.23l.28-.58a1.14,1.14,0,0,1,.15-.46,1.93,1.93,0,0,1,.28-.47.64.64,0,0,0,.11-.2.91.91,0,0,1,.06-.16l.13-.28c.11-.16.22-.34.32-.52s.19-.37.3-.56a5.41,5.41,0,0,0,.31-.47c.1-.16.2-.32.32-.48s.42-.57.61-.85a9.1,9.1,0,0,1,.61-.78l.7-.8a10.21,10.21,0,0,1,.73-.74c.59-.57,1.17-1.08,1.73-1.53a4.81,4.81,0,0,1,.52-.4l.54-.37a18.71,18.71,0,0,1,2.23-1.31,19.84,19.84,0,0,1,2.37-1,9.07,9.07,0,0,1,.89-.26l.92-.2a1.49,1.49,0,0,1,.4-.06,1.24,1.24,0,0,0,.37-.06l.49-.05.5,0a.22.22,0,0,1,.16,0,.19.19,0,0,0,.15,0"/><path class="cls-3" d="M225.41,19.47h2.64c.23,0,.44,0,.64,0s.32.08.35.23a.91.91,0,0,1-.09.55c-.09.22-.2.47-.32.74l-1.25,2.67-5,10.67-2.35,5-.4.89a2.06,2.06,0,0,1-.48.74,1.62,1.62,0,0,1-.71.34,1.31,1.31,0,0,1-.48,0,3.59,3.59,0,0,0-.47,0h-1.82a6,6,0,0,1-.62,0,.52.52,0,0,1-.39-.19.59.59,0,0,1,0-.46A6.48,6.48,0,0,1,215,40l1.24-2.67,5.24-11.22,2.09-4.49.46-1a2.42,2.42,0,0,1,.52-.83,1.56,1.56,0,0,1,.54-.31h.18a.39.39,0,0,1,.15,0"/><path class="cls-3" d="M248.13,29.64a2.79,2.79,0,0,1-.22.63,2.45,2.45,0,0,1-.34.63l-.19.4A6.77,6.77,0,0,0,247,32a5.69,5.69,0,0,1-.37.68,4.15,4.15,0,0,0-.3.43,4.65,4.65,0,0,1-.29.43l-.79,1.07c-.26.35-.54.69-.83,1a20.13,20.13,0,0,1-4.16,3.58,18.73,18.73,0,0,1-4.9,2.2,5.93,5.93,0,0,1-.76.18l-.73.13a1.13,1.13,0,0,1-.36.06l-.33,0-1.06.09a2.34,2.34,0,0,1-.82,0,.66.66,0,0,0-.28,0,1.27,1.27,0,0,1-.28,0h-.34a2.31,2.31,0,0,0-.43-.08,3.07,3.07,0,0,1-.42-.07,3.69,3.69,0,0,0-.45-.11l-.44-.11-.57-.24a5.07,5.07,0,0,1-.57-.29,4.79,4.79,0,0,1-2.12-2.13,6.61,6.61,0,0,1-.59-3.18,5,5,0,0,1,.11-.91c.07-.32.13-.64.18-1a.66.66,0,0,1,.06-.26.88.88,0,0,0,.07-.23,4.16,4.16,0,0,1,.12-.44c0-.16.09-.32.13-.48a1.48,1.48,0,0,1,.12-.29.59.59,0,0,0,.08-.27,1.61,1.61,0,0,1,.18-.38,1.85,1.85,0,0,0,.18-.38,1.54,1.54,0,0,1,.15-.48,2.14,2.14,0,0,1,.29-.48,1.53,1.53,0,0,0,.14-.29.81.81,0,0,1,.13-.29l.09-.18a1.85,1.85,0,0,0,.24-.42,1.34,1.34,0,0,1,.22-.38,1.31,1.31,0,0,0,.21-.33,1.66,1.66,0,0,1,.22-.32c.26-.35.5-.69.72-1a9.65,9.65,0,0,1,.75-1c.32-.35.64-.69.94-1a13.09,13.09,0,0,1,1-1,18.81,18.81,0,0,1,7-4.15,7.92,7.92,0,0,1,1-.24c.33-.06.65-.14,1-.22a1,1,0,0,1,.32-.06l.3,0,1-.09a.25.25,0,0,1,.17,0,.25.25,0,0,0,.17,0,9.62,9.62,0,0,1,3.57.44,5.79,5.79,0,0,1,2.21,1.4q.27.29.54.63a2.47,2.47,0,0,1,.37.72l.15.33c0,.11.09.22.13.32l.21,1a4.8,4.8,0,0,1,.07,1.09c0,.29,0,.56-.06.83s-.07.55-.11.86a4.75,4.75,0,0,1-.14.63q-.09.33-.15.66a1.6,1.6,0,0,1-.14.42,1.16,1.16,0,0,0-.11.38,1.42,1.42,0,0,1-.14.39,1.93,1.93,0,0,0-.15.35Zm-5.37,1.3a2.22,2.22,0,0,0,.27-.45,1.45,1.45,0,0,0,.15-.45l.24-.52a.92.92,0,0,1,.09-.23.32.32,0,0,0,.06-.23,4.42,4.42,0,0,1,.15-.48,2.71,2.71,0,0,0,.13-.44,1.22,1.22,0,0,0,.1-.34c0-.22.08-.45.13-.68a5.08,5.08,0,0,0,.07-.67,3.61,3.61,0,0,0-.77-2.54,3.93,3.93,0,0,0-3.1-1,.26.26,0,0,1-.15,0,.23.23,0,0,0-.14,0,.78.78,0,0,1-.26,0,.57.57,0,0,0-.29.05l-.73.13a7,7,0,0,0-.69.2,9.53,9.53,0,0,0-2.76,1.54,15.84,15.84,0,0,0-2.32,2.37,6.44,6.44,0,0,0-.45.66c-.13.21-.28.43-.44.66a1.18,1.18,0,0,0-.14.23,2,2,0,0,1-.14.23,1,1,0,0,0-.19.34,1.17,1.17,0,0,1-.16.34,3.46,3.46,0,0,0-.34.57,1.93,1.93,0,0,0-.22.56l-.16.34a.85.85,0,0,1-.09.27,1.52,1.52,0,0,0-.09.25,1.44,1.44,0,0,0-.09.24,1.78,1.78,0,0,1-.09.23,5.54,5.54,0,0,1-.18.67,2.77,2.77,0,0,0-.13.65,7.51,7.51,0,0,0,0,1.83,2.3,2.3,0,0,0,.59,1.37.61.61,0,0,0,.21.24l.26.19a2,2,0,0,0,.57.34l.7.24a.49.49,0,0,0,.27.05.87.87,0,0,1,.28,0,1,1,0,0,0,.34.06h.65a.91.91,0,0,1,.28,0,.72.72,0,0,0,.3-.05l.67-.1a4,4,0,0,0,.66-.17,10,10,0,0,0,2.71-1.36A13.6,13.6,0,0,0,240.77,34a4.74,4.74,0,0,0,.58-.74c.18-.26.37-.53.57-.8l.44-.74a1.28,1.28,0,0,0,.15-.25c0-.1.09-.2.14-.3Z"/><path class="cls-6" d="M61.13,54.62v0a3.79,3.79,0,0,1-1.51,1.92,4.19,4.19,0,0,1-2.47.78,1.94,1.94,0,0,1-1.9-1,3,3,0,0,1,0-2.48l.52-1.46a5.64,5.64,0,0,1,1.78-2.49,4.15,4.15,0,0,1,2.62-1,2.25,2.25,0,0,1,1.93.73,2,2,0,0,1,.09,2l0,0H61.14a1.47,1.47,0,0,0,0-1.35,1.35,1.35,0,0,0-1.24-.5,2.55,2.55,0,0,0-1.75.74,4.72,4.72,0,0,0-1.22,1.85l-.53,1.47a2.73,2.73,0,0,0-.13,1.86,1.16,1.16,0,0,0,1.2.74A2.67,2.67,0,0,0,59.07,56a2.79,2.79,0,0,0,1-1.38Z"/><path class="cls-6" d="M63.2,54.15a5.16,5.16,0,0,1,1.53-2.22,3.53,3.53,0,0,1,2.3-.87,1.68,1.68,0,0,1,1.68.87,2.87,2.87,0,0,1-.08,2.22l0,.12a5,5,0,0,1-1.54,2.22,3.51,3.51,0,0,1-2.3.87,1.66,1.66,0,0,1-1.67-.87,2.87,2.87,0,0,1,.07-2.22Zm1.06.12a2.68,2.68,0,0,0-.18,1.59.89.89,0,0,0,1,.63,2,2,0,0,0,1.43-.63,4,4,0,0,0,1-1.59l0-.12a2.64,2.64,0,0,0,.16-1.59.89.89,0,0,0-1-.63,2,2,0,0,0-1.43.63,4.12,4.12,0,0,0-1,1.59Z"/><path class="cls-6" d="M70.58,54.15a5.09,5.09,0,0,1,1.54-2.22,3.51,3.51,0,0,1,2.29-.87,1.68,1.68,0,0,1,1.68.87A2.87,2.87,0,0,1,76,54.15l0,.12a5,5,0,0,1-1.54,2.22,3.49,3.49,0,0,1-2.3.87,1.67,1.67,0,0,1-1.67-.87,2.83,2.83,0,0,1,.08-2.22Zm1.06.12a2.66,2.66,0,0,0-.17,1.59.88.88,0,0,0,1,.63,2,2,0,0,0,1.43-.63,4,4,0,0,0,1-1.59l0-.12a2.64,2.64,0,0,0,.16-1.59.88.88,0,0,0-1-.63,2,2,0,0,0-1.42.63,4.26,4.26,0,0,0-1,1.59Z"/><path class="cls-6" d="M83.29,54.44a5.11,5.11,0,0,1-1.4,2.11,3,3,0,0,1-2,.81,2,2,0,0,1-.91-.19,1.18,1.18,0,0,1-.52-.56l-1.08,3h-1.1l3-8.4h.85L80,52a3.29,3.29,0,0,1,1-.67,2.8,2.8,0,0,1,1.12-.23,1.33,1.33,0,0,1,1.42.89,3.73,3.73,0,0,1-.23,2.37Zm-1.07-.12a3,3,0,0,0,.21-1.7.85.85,0,0,0-1-.66,1.91,1.91,0,0,0-.89.21,2.83,2.83,0,0,0-.76.59L78.76,55.7a1,1,0,0,0,.33.58,1.18,1.18,0,0,0,.75.21,2,2,0,0,0,1.4-.57,3.8,3.8,0,0,0,.94-1.48Z"/><path class="cls-6" d="M87,57.36a1.76,1.76,0,0,1-1.74-.84,2.77,2.77,0,0,1,.07-2.2l.09-.24a4.84,4.84,0,0,1,1.54-2.17,3.42,3.42,0,0,1,2.15-.85c.81,0,1.33.25,1.55.76a2.75,2.75,0,0,1-.12,2l-.21.58H86.4l0,0a2.28,2.28,0,0,0-.14,1.48c.13.38.48.57,1,.57a3.35,3.35,0,0,0,1.93-.6l.17.72a4,4,0,0,1-1,.53,4.17,4.17,0,0,1-1.36.22m1.8-5.43a1.77,1.77,0,0,0-1.12.44,3.42,3.42,0,0,0-.88,1.15v0h2.74l0-.09a1.56,1.56,0,0,0,.07-1.09c-.11-.28-.39-.43-.84-.43"/><path class="cls-6" d="M96.07,52.15l-.56,0a1.62,1.62,0,0,0-.81.2,2.18,2.18,0,0,0-.67.59l-1.58,4.33h-1.1l2.2-6.07h1l-.22.89a3.61,3.61,0,0,1,.91-.74,2,2,0,0,1,1-.26l.23,0,.17,0Z"/><path class="cls-6" d="M100,57.24c0-.18.06-.35.09-.49a3.31,3.31,0,0,1,.12-.42,4.56,4.56,0,0,1-1.08.73,2.61,2.61,0,0,1-1.17.3,1.43,1.43,0,0,1-1.27-.49,1.51,1.51,0,0,1,0-1.34,2.52,2.52,0,0,1,1.2-1.36,4.3,4.3,0,0,1,2.09-.49h1.2l.22-.6a.77.77,0,0,0-.83-1.15,1.79,1.79,0,0,0-1,.27,1.31,1.31,0,0,0-.56.64l-1,0v0A2.33,2.33,0,0,1,99,51.61a3.4,3.4,0,0,1,1.9-.55,1.84,1.84,0,0,1,1.47.52,1.48,1.48,0,0,1,.08,1.51L101.37,56a5.45,5.45,0,0,0-.19.62,3.11,3.11,0,0,0-.09.6Zm-1.54-.81a2.49,2.49,0,0,0,1.19-.31,2.52,2.52,0,0,0,.89-.7l.36-1H99.61a2.1,2.1,0,0,0-1.19.34,1.57,1.57,0,0,0-.69.79.67.67,0,0,0,0,.64.78.78,0,0,0,.66.23"/><path class="cls-6" d="M107.67,49.71l-.54,1.46h1.15L108,52h-1.15l-1.34,3.68c-.11.29-.12.49,0,.6a.43.43,0,0,0,.4.18l.22,0a1,1,0,0,0,.22-.05l-.13.76a1.54,1.54,0,0,1-.42.16,1.88,1.88,0,0,1-.5.07,1,1,0,0,1-.93-.41,1.57,1.57,0,0,1,.07-1.28L105.73,52h-1l.3-.82h1l.53-1.46Z"/><path class="cls-6" d="M109.31,57.24H108.2l2.21-6.07h1.11Zm2.77-7.62H111l.41-1.13h1.1Z"/><polygon class="cls-6" points="114.54 55.45 114.48 55.88 114.51 55.88 114.77 55.45 117.73 51.17 118.85 51.17 114.41 57.24 113.58 57.24 113.53 51.17 114.66 51.17 114.54 55.45"/><path class="cls-6" d="M122.14,57.24a4.84,4.84,0,0,1,.09-.49c0-.14.07-.28.11-.42a4.3,4.3,0,0,1-1.07.73,2.61,2.61,0,0,1-1.17.3,1.44,1.44,0,0,1-1.27-.49,1.47,1.47,0,0,1,0-1.34,2.52,2.52,0,0,1,1.2-1.36,4.3,4.3,0,0,1,2.09-.49h1.2l.22-.6a.77.77,0,0,0-.83-1.15,1.79,1.79,0,0,0-1,.27,1.31,1.31,0,0,0-.56.64l-1,0v0a2.33,2.33,0,0,1,1.06-1.21,3.4,3.4,0,0,1,1.9-.55,1.84,1.84,0,0,1,1.47.52,1.51,1.51,0,0,1,.08,1.51L123.56,56a5.45,5.45,0,0,0-.19.62,2.49,2.49,0,0,0-.09.6Zm-1.54-.81a2.49,2.49,0,0,0,1.19-.31,2.52,2.52,0,0,0,.89-.7l.36-1H121.8a2.08,2.08,0,0,0-1.19.34,1.57,1.57,0,0,0-.69.79.67.67,0,0,0,0,.64.78.78,0,0,0,.66.23"/><path class="cls-6" d="M128.39,54.32A5.89,5.89,0,0,1,129.87,52a3,3,0,0,1,2.08-.9,1.65,1.65,0,0,1,.87.2,1.16,1.16,0,0,1,.5.57l1.21-3.34h1.11l-3.19,8.75h-.84l.11-.77a3.38,3.38,0,0,1-1,.66,2.71,2.71,0,0,1-1.1.23,1.39,1.39,0,0,1-1.44-.81,2.94,2.94,0,0,1,.14-2.11Zm1.06.12a2.28,2.28,0,0,0-.16,1.47c.11.36.44.55,1,.55a1.93,1.93,0,0,0,.92-.23,2.73,2.73,0,0,0,.77-.62l1-2.83a1,1,0,0,0-.33-.6,1.11,1.11,0,0,0-.74-.22,1.9,1.9,0,0,0-1.41.65,5,5,0,0,0-1,1.71Z"/><path class="cls-6" d="M137.43,57.36a1.77,1.77,0,0,1-1.74-.84,2.77,2.77,0,0,1,.07-2.2l.09-.24a4.89,4.89,0,0,1,1.54-2.17,3.42,3.42,0,0,1,2.15-.85c.82,0,1.33.25,1.55.76a2.75,2.75,0,0,1-.12,2l-.21.58h-3.88l0,0a2.28,2.28,0,0,0-.14,1.48c.14.38.48.57,1,.57a3.35,3.35,0,0,0,1.93-.6l.17.72a4,4,0,0,1-1.05.53,4.17,4.17,0,0,1-1.36.22m1.8-5.43a1.77,1.77,0,0,0-1.12.44,3.42,3.42,0,0,0-.88,1.15v0H140l0-.09a1.51,1.51,0,0,0,.07-1.09c-.11-.28-.39-.43-.84-.43"/><path class="cls-6" d="M149,55.14h-3.07l-1.49,2.1h-1.13l5.92-8.16h.94L150,57.24h-1.12Zm-2.41-.93H149l.08-3.5h0Z"/><path class="cls-6" d="M155,52a4.13,4.13,0,0,1,1-.68,2.73,2.73,0,0,1,1.1-.24,1.35,1.35,0,0,1,1.3.58,2.26,2.26,0,0,1-.11,1.8l-1.38,3.8h-1.11l1.39-3.81a1.43,1.43,0,0,0,.08-1.11.85.85,0,0,0-.83-.36,2.24,2.24,0,0,0-.93.19,2.6,2.6,0,0,0-.78.54L153,57.24h-1.1l3.18-8.75h1.11Z"/><path class="cls-6" d="M160.19,54.15a5,5,0,0,1,1.53-2.22,3.51,3.51,0,0,1,2.3-.87,1.65,1.65,0,0,1,1.67.87,2.87,2.87,0,0,1-.07,2.22l-.05.12A5,5,0,0,1,164,56.49a3.53,3.53,0,0,1-2.3.87,1.65,1.65,0,0,1-1.67-.87,2.82,2.82,0,0,1,.07-2.22Zm1.05.12a2.66,2.66,0,0,0-.17,1.59.89.89,0,0,0,1,.63,2,2,0,0,0,1.43-.63,4.11,4.11,0,0,0,1-1.59l.05-.12a2.71,2.71,0,0,0,.16-1.59.89.89,0,0,0-1-.63,2,2,0,0,0-1.42.63,4.14,4.14,0,0,0-1,1.59Z"/><path class="cls-6" d="M171.42,52.15l-.55,0a1.62,1.62,0,0,0-.81.2,2.21,2.21,0,0,0-.68.59l-1.58,4.33h-1.1l2.21-6.07h1l-.21.89a3.76,3.76,0,0,1,.9-.74,2,2,0,0,1,1-.26l.23,0,.17,0Z"/><path class="cls-6" d="M176.3,52.15l-.55,0a1.6,1.6,0,0,0-.81.2,2.21,2.21,0,0,0-.68.59l-1.58,4.33h-1.1l2.21-6.07h1l-.21.89a3.41,3.41,0,0,1,.9-.74,2,2,0,0,1,1-.26l.23,0,.17,0Z"/><path class="cls-6" d="M177.21,54.15a5.07,5.07,0,0,1,1.53-2.22,3.53,3.53,0,0,1,2.3-.87,1.65,1.65,0,0,1,1.67.87,2.82,2.82,0,0,1-.07,2.22l0,.12a5,5,0,0,1-1.53,2.22,3.49,3.49,0,0,1-2.3.87,1.66,1.66,0,0,1-1.67-.87,2.87,2.87,0,0,1,.07-2.22Zm1.06.12a2.68,2.68,0,0,0-.18,1.59.89.89,0,0,0,1,.63,2,2,0,0,0,1.43-.63,4,4,0,0,0,1-1.59l0-.12a2.64,2.64,0,0,0,.16-1.59.89.89,0,0,0-1-.63,2,2,0,0,0-1.42.63,4.26,4.26,0,0,0-1,1.59Z"/><path class="cls-6" d="M188.39,55l-.08.76h0l3.16-4.58h1.22l-5.09,7a5.28,5.28,0,0,1-1,1.06,2.1,2.1,0,0,1-1.32.46l-.33,0-.3-.06.42-.87h.2l.29,0a1.05,1.05,0,0,0,.69-.31,6,6,0,0,0,.63-.7l.49-.64-.09-5.94h1.24Z"/><path class="cls-6" d="M201.28,54.62v0a3.74,3.74,0,0,1-1.51,1.92,4.17,4.17,0,0,1-2.47.78,2,2,0,0,1-1.9-1,3,3,0,0,1,0-2.48l.53-1.46a5.64,5.64,0,0,1,1.78-2.49,4.14,4.14,0,0,1,2.61-1,2.29,2.29,0,0,1,1.94.73,2,2,0,0,1,.08,2l0,0h-1.06a1.5,1.5,0,0,0,0-1.35,1.37,1.37,0,0,0-1.25-.5,2.53,2.53,0,0,0-1.74.74,4.63,4.63,0,0,0-1.23,1.85l-.53,1.47a2.66,2.66,0,0,0-.12,1.86,1.14,1.14,0,0,0,1.2.74,2.64,2.64,0,0,0,1.6-.49,2.81,2.81,0,0,0,1-1.38Z"/><path class="cls-6" d="M207.2,52.15l-.55,0a1.57,1.57,0,0,0-.81.2,2.1,2.1,0,0,0-.68.59l-1.58,4.33h-1.1l2.21-6.07h1l-.21.89a3.41,3.41,0,0,1,.9-.74,2,2,0,0,1,1-.26l.23,0,.16,0Z"/><path class="cls-6" d="M209.72,57.36a1.76,1.76,0,0,1-1.74-.84,2.77,2.77,0,0,1,.07-2.2l.09-.24a4.89,4.89,0,0,1,1.54-2.17,3.42,3.42,0,0,1,2.15-.85c.81,0,1.33.25,1.55.76a2.75,2.75,0,0,1-.12,2l-.22.58h-3.87l0,0a2.28,2.28,0,0,0-.14,1.48c.13.38.48.57,1,.57a3.35,3.35,0,0,0,1.93-.6l.17.72a4.18,4.18,0,0,1-2.41.75m1.8-5.43a1.77,1.77,0,0,0-1.12.44,3.42,3.42,0,0,0-.88,1.15v0h2.73l0-.09a1.56,1.56,0,0,0,.07-1.09c-.11-.29-.39-.43-.84-.43m1.63-3.34h1.29v0l-2,1.46h-.82Z"/><path class="cls-6" d="M214.92,54.32A5.91,5.91,0,0,1,216.41,52a3,3,0,0,1,2.08-.9,1.65,1.65,0,0,1,.87.2,1.1,1.1,0,0,1,.49.57l1.22-3.34h1.1L219,57.24h-.84l.11-.77a3.52,3.52,0,0,1-1,.66,2.74,2.74,0,0,1-1.1.23,1.38,1.38,0,0,1-1.44-.81,2.88,2.88,0,0,1,.14-2.11Zm1.07.12a2.28,2.28,0,0,0-.16,1.47c.11.36.43.55,1,.55a1.89,1.89,0,0,0,.91-.23,2.63,2.63,0,0,0,.78-.62l1-2.83a1,1,0,0,0-.34-.6,1.06,1.06,0,0,0-.73-.22,1.9,1.9,0,0,0-1.41.65,4.89,4.89,0,0,0-1,1.71Z"/><path class="cls-6" d="M222.69,57.24h-1.11l2.21-6.07h1.11Zm2.77-7.62h-1.1l.41-1.13h1.1Z"/><path class="cls-6" d="M229.52,49.71,229,51.17h1.15l-.3.82h-1.15l-1.34,3.68c-.1.29-.12.49,0,.6a.43.43,0,0,0,.4.18l.22,0a1,1,0,0,0,.22-.05l-.12.76a1.62,1.62,0,0,1-.43.16,1.77,1.77,0,0,1-.5.07,1,1,0,0,1-.92-.41,1.52,1.52,0,0,1,.06-1.28L227.59,52h-1l.3-.82h1l.54-1.46Z"/><path class="cls-6" d="M230.83,54.15a5.09,5.09,0,0,1,1.54-2.22,3.51,3.51,0,0,1,2.3-.87,1.67,1.67,0,0,1,1.67.87,2.83,2.83,0,0,1-.08,2.22l0,.12a5,5,0,0,1-1.54,2.22,3.49,3.49,0,0,1-2.29.87,1.68,1.68,0,0,1-1.68-.87,2.87,2.87,0,0,1,.08-2.22Zm1.06.12a2.66,2.66,0,0,0-.17,1.59.88.88,0,0,0,1,.63,2,2,0,0,0,1.42-.63,4.12,4.12,0,0,0,1-1.59l0-.12a2.65,2.65,0,0,0,.17-1.59.89.89,0,0,0-1-.63,2,2,0,0,0-1.43.63,4.24,4.24,0,0,0-1,1.59Z"/></g></g></g></svg>