<svg xmlns="http://www.w3.org/2000/svg" viewBox="0 0 34.49 32.36"><defs><style>.cls-1{fill:#fff;}</style></defs><title>oficina-virtual</title><g id="Capa_2" data-name="Capa 2"><g id="Pantalla_de_inicio" data-name="Pantalla de inicio"><g id="Botones_transaccionales" data-name="Botones transaccionales"><path class="cls-1" d="M34.49,21.84c-.28.38-.7.29-1.08.29s-.51,0-.51.51v5.89a3.76,3.76,0,0,1-3.81,3.83H5.43a3.75,3.75,0,0,1-3.81-3.82q0-3,0-6c0-.32-.08-.45-.41-.41a4.56,4.56,0,0,1-.64,0A.55.55,0,0,1,0,21.55V10.31A3.77,3.77,0,0,1,3.22,6.5a3.43,3.43,0,0,1,.64,0H8.74c.32,0,.43-.07.42-.41,0-1,0-1.93,0-2.89A3.21,3.21,0,0,1,12.32,0h9.86a3.21,3.21,0,0,1,3.18,3.18c0,.94,0,1.88,0,2.83,0,.44,0,.45.44.45,1.58,0,3.16,0,4.74,0A3.85,3.85,0,0,1,34.43,9.4l.06.19Zm-17.24,9.4H28.32a10.31,10.31,0,0,0,1.11,0A2.64,2.64,0,0,0,31.72,29a12.16,12.16,0,0,0,.05-1.81c0-1.56,0-3.12,0-4.68,0-.26-.06-.37-.34-.35s-.74,0-1.11,0c-.76,0-1.53,0-2.29,0A.56.56,0,1,1,28,21c.1,0,.2,0,.3,0,1.56,0,3.12,0,4.68,0,.29,0,.39-.07.39-.37q0-5.1,0-10.2a2.85,2.85,0,0,0-.23-1.22,2.7,2.7,0,0,0-2.67-1.63H4a2.85,2.85,0,0,0-2,.7,2.77,2.77,0,0,0-.9,2.2c0,3.33,0,6.66,0,10,0,.53,0,.53.53.53H6.17c.1,0,.2,0,.3,0a.56.56,0,1,1,0,1.12c-1.13,0-2.27,0-3.4,0-.22,0-.32.05-.32.3,0,2,0,4.06,0,6.09a2.64,2.64,0,0,0,2,2.61,4.52,4.52,0,0,0,1.1.11Zm0-30.11H12.55a2.09,2.09,0,0,0-2.23,1.94c-.12,1.05,0,2.12,0,3.19,0,.16.1.21.24.21.34,0,.67,0,1,0s.33-.09.32-.34c0-.89,0-1.79,0-2.69,0-.57.17-.74.74-.74h9.35c.56,0,.73.17.73.75,0,.89,0,1.79,0,2.69,0,.25.08.34.33.33s.63,0,.94,0,.31,0,.31-.28c0-1,0-1.93,0-2.9a2.76,2.76,0,0,0-.1-.63A2.13,2.13,0,0,0,22,1.13Zm0,5.34h4c.26,0,.36-.07.35-.34,0-.66,0-1.33,0-2,0-.25-.09-.32-.34-.32H13.3c-.24,0-.34.07-.33.32,0,.65,0,1.3,0,2,0,.31.09.38.38.38Z"/><path class="cls-1" d="M26.44,19.41c0,1.56,0,3.12,0,4.67a.79.79,0,0,1-.46.79q-4.12,2.31-8.26,4.65a.85.85,0,0,1-.92,0q-4.12-2.34-8.27-4.66a.79.79,0,0,1-.46-.78q0-4.66,0-9.35A.79.79,0,0,1,8.52,14q4.15-2.33,8.3-4.67a.82.82,0,0,1,.88,0L26,14a.76.76,0,0,1,.44.76C26.43,16.29,26.44,17.85,26.44,19.41ZM10.78,16.07c0-.48.46-.7.93-.43l5.28,3a.45.45,0,0,0,.52,0l6.83-3.85c.35-.2.35-.21,0-.4l-6.83-3.85a.42.42,0,0,0-.49,0c-2.51,1.41-5,2.83-7.54,4.23a.51.51,0,0,0-.28.51q0,4.14,0,8.28a.55.55,0,0,0,.32.56c2.28,1.27,4.55,2.56,6.83,3.84.34.19.35.18.35-.2,0-2.46,0-4.91,0-7.37a.91.91,0,0,0-.56-.93c-1.67-.91-3.33-1.86-5-2.79A.62.62,0,0,1,10.78,16.07Zm7,12L18,28l7.1-4a.47.47,0,0,0,.24-.47q0-3.86,0-7.71c0-.09.05-.2-.07-.28l-.32.17c-2.26,1.27-4.51,2.54-6.78,3.8a.59.59,0,0,0-.33.59c0,2.52,0,5.05,0,7.57Z"/></g></g></g></svg>