<svg xmlns="http://www.w3.org/2000/svg" viewBox="0 0 16.43 16.41"><defs><style>.cls-1{fill:#fff;}</style></defs><title>ofice</title><g id="Capa_2" data-name="Capa 2"><g id="Pantalla_de_inicio" data-name="Pantalla de inicio"><g id="Footer"><path class="cls-1" d="M0,16.05a.4.4,0,0,1,.39-.2H2.74v-.23q0-7.6,0-15.2A.45.45,0,0,1,2.92,0h7.29a.37.37,0,0,1,.2.38V6.56h3.7c.33,0,.4.08.4.41q0,4.32,0,8.66v.23h1.53a.38.38,0,0,1,.38.2v.16a.38.38,0,0,1-.38.2q-7.83,0-15.66,0a.41.41,0,0,1-.39-.2Zm4.11-.2V13.46A.82.82,0,0,1,5,12.58h.4a.82.82,0,0,1,.92.92v2.35h.55V7c0-.3.08-.39.39-.39H9.85v-6H3.3V15.85ZM14,7.12H7.4v8.73H14ZM5.73,15.85l0,0v-2.4a.26.26,0,0,0-.28-.28H5c-.29,0-.37.09-.37.39v2.34Z"/><path class="cls-1" d="M6.85,4.92c0-.25,0-.49,0-.74s.1-.35.34-.35c.51,0,1,0,1.51,0,.24,0,.34.1.34.34V5.68c0,.23-.11.33-.35.34H7.2c-.25,0-.35-.11-.35-.37S6.85,5.16,6.85,4.92Zm1.63.54V4.38h-1s-.08,0-.08.07c0,.33,0,.67,0,1Z"/><path class="cls-1" d="M6.3,4.93v.76c0,.22-.1.32-.32.32H4.43c-.22,0-.32-.11-.32-.33V4.16c0-.23.1-.33.33-.33.51,0,1,0,1.52,0,.24,0,.34.1.34.34ZM4.67,4.38V5.46H5.74V4.38Z"/><path class="cls-1" d="M7.93,3.28H7.17c-.22,0-.32-.1-.32-.32,0-.52,0-1,0-1.55,0-.22.11-.32.33-.32H8.71c.22,0,.33.11.33.34V3c0,.23-.1.32-.34.33Zm.55-.56V1.65H7.41V2.72Z"/><path class="cls-1" d="M6.3,7.67v.75c0,.23-.1.33-.33.33H4.43c-.22,0-.32-.11-.32-.33V6.88c0-.22.1-.31.33-.32H6c.22,0,.31.1.32.33Zm-.56.52V7.12H4.67V8.19Z"/><path class="cls-1" d="M6.3,2.2V3A.28.28,0,0,1,6,3.28H4.41A.28.28,0,0,1,4.11,3V1.39a.28.28,0,0,1,.29-.3H6a.29.29,0,0,1,.3.31Zm-1.64.52H5.74V1.65H4.66Z"/><path class="cls-1" d="M4.11,10.38V9.63c0-.23.1-.33.33-.34H6c.23,0,.33.11.33.34v1.52c0,.23-.1.33-.33.33H4.44c-.24,0-.33-.1-.33-.35Zm1.63-.53H4.67v1.07H5.74Z"/><path class="cls-1" d="M13.15,11.48v.75c0,.25-.1.34-.34.35H11.3c-.24,0-.34-.11-.34-.35q0-.75,0-1.5c0-.24.1-.34.34-.34h1.5c.24,0,.34.1.35.34Zm-.56-.54H11.51V12h1.08Z"/><path class="cls-1" d="M10.41,11.48v.76c0,.23-.1.33-.32.33H8.53c-.21,0-.31-.1-.31-.32V10.7a.27.27,0,0,1,.3-.31h1.57c.21,0,.31.11.32.32Zm-1.64-.54V12H9.85V10.94Z"/><path class="cls-1" d="M12,9.84h-.76A.28.28,0,0,1,11,9.53q0-.78,0-1.56c0-.22.11-.31.32-.31h1.54c.22,0,.33.1.33.32V9.51c0,.24-.11.33-.34.33Zm-.52-1.63V9.29h1.07V8.21Z"/><path class="cls-1" d="M12.05,13.12h.77c.23,0,.33.09.33.32V15a.29.29,0,0,1-.33.33H11.28c-.22,0-.32-.11-.32-.33q0-.77,0-1.53c0-.23.1-.32.32-.32Zm-.54,1.64h1.08V13.68H11.51Z"/><path class="cls-1" d="M10.41,8.75v.76c0,.23-.1.33-.33.33H8.55c-.23,0-.33-.1-.33-.34V8c0-.24.1-.34.34-.34h1.5c.25,0,.34.09.35.33ZM8.77,8.21V9.28H9.85V8.21Z"/><path class="cls-1" d="M8.22,14.21v-.74c0-.24.09-.34.33-.34.51,0,1,0,1.52,0,.24,0,.33.09.34.33V15c0,.23-.11.33-.34.33H8.55A.29.29,0,0,1,8.22,15Zm.55.55H9.85V13.68H8.77Z"/></g></g></g></svg>