<svg xmlns="http://www.w3.org/2000/svg" viewBox="0 0 88.76 23.65"><defs><style>.cls-1{fill:#fff;}</style></defs><title>pread</title><g id="Capa_2" data-name="Capa 2"><g id="Pantalla_de_inicio" data-name="Pantalla de inicio"><polyline class="cls-1" points="59.22 8.59 59.22 9.03 57.39 9.03 57.39 6.4 59.19 6.4 59.19 6.85 57.9 6.85 57.9 7.48 59.01 7.48 59.01 7.9 57.9 7.9 57.9 8.59"/><path class="cls-1" d="M61.3,9h-.49V8a.61.61,0,0,0-.08-.34.28.28,0,0,0-.23-.1.39.39,0,0,0-.2.05.62.62,0,0,0-.19.14.49.49,0,0,0-.11.2V9h-.5V7.11H60v.36a.76.76,0,0,1,.19-.21.71.71,0,0,1,.26-.13.86.86,0,0,1,.32,0,.67.67,0,0,1,.3.06.42.42,0,0,1,.17.18.63.63,0,0,1,.09.24,1.23,1.23,0,0,1,0,.27"/><polyline class="cls-1" points="64.7 9.03 64.7 7.31 64.02 8.59 63.74 8.59 63.06 7.31 63.06 9.03 62.55 9.03 62.55 6.4 63.1 6.4 63.88 7.9 64.67 6.4 65.21 6.4 65.21 9.03"/><path class="cls-1" d="M65.49,8.47a.52.52,0,0,1,.11-.33.64.64,0,0,1,.29-.22,1.19,1.19,0,0,1,.44-.08l.24,0a.64.64,0,0,1,.22.06v-.1a.36.36,0,0,0-.1-.28.48.48,0,0,0-.33-.1.73.73,0,0,0-.3.06,1.31,1.31,0,0,0-.31.16l-.16-.33a1.62,1.62,0,0,1,.4-.19,1.42,1.42,0,0,1,.42-.06,1,1,0,0,1,.65.2.74.74,0,0,1,.23.59v.61a.16.16,0,0,0,0,.11.13.13,0,0,0,.09,0V9l-.12,0H67.2A.32.32,0,0,1,67,9a.26.26,0,0,1-.09-.16v-.1a.87.87,0,0,1-.32.25.85.85,0,0,1-.38.09A.67.67,0,0,1,65.82,9a.61.61,0,0,1-.24-.21.59.59,0,0,1-.09-.31m1.21.09.07-.08a.13.13,0,0,0,0-.08V8.2l-.19,0-.2,0a.57.57,0,0,0-.31.08.26.26,0,0,0-.13.22.18.18,0,0,0,.05.13.23.23,0,0,0,.11.11.53.53,0,0,0,.19,0,.85.85,0,0,0,.22,0,.56.56,0,0,0,.17-.11"/><path class="cls-1" d="M68.85,7.52a.91.91,0,0,0-.41.09.55.55,0,0,0-.25.25V9h-.5V7.11h.46v.4a.83.83,0,0,1,.26-.32.56.56,0,0,1,.34-.12h.1"/><path class="cls-1" d="M69.94,9.07A1,1,0,0,1,69.51,9a.87.87,0,0,1-.32-.22,1,1,0,0,1-.2-.32,1,1,0,0,1-.07-.38A.91.91,0,0,1,69,7.58a.93.93,0,0,1,.35-.36,1,1,0,0,1,.55-.14,1,1,0,0,1,.54.14.9.9,0,0,1,.34.36l-.49.14a.44.44,0,0,0-.17-.16.41.41,0,0,0-.23-.06.55.55,0,0,0-.25.07.61.61,0,0,0-.19.2.73.73,0,0,0-.06.3.58.58,0,0,0,.07.3.44.44,0,0,0,.18.2.46.46,0,0,0,.25.08.43.43,0,0,0,.17,0,.71.71,0,0,0,.15-.08.47.47,0,0,0,.09-.12l.48.15a.75.75,0,0,1-.19.26,1.09,1.09,0,0,1-.3.18,1.14,1.14,0,0,1-.39.06"/><path class="cls-1" d="M72.87,9h-.5V8a.5.5,0,0,0-.08-.33.28.28,0,0,0-.24-.11.36.36,0,0,0-.19.05.49.49,0,0,0-.18.14.67.67,0,0,0-.12.2V9h-.49V6.33h.49V7.47a.83.83,0,0,1,.3-.29.77.77,0,0,1,.4-.1.68.68,0,0,1,.31.06.45.45,0,0,1,.18.18.64.64,0,0,1,.1.24,2.45,2.45,0,0,1,0,.27"/><path class="cls-1" d="M73.11,8.47a.52.52,0,0,1,.1-.33.62.62,0,0,1,.3-.22,1.14,1.14,0,0,1,.43-.08l.25,0a.64.64,0,0,1,.22.06v-.1a.36.36,0,0,0-.11-.28.44.44,0,0,0-.32-.1.81.81,0,0,0-.31.06,1.26,1.26,0,0,0-.3.16l-.16-.33a1.75,1.75,0,0,1,.39-.19A1.54,1.54,0,0,1,74,7.08a1,1,0,0,1,.65.2.78.78,0,0,1,.23.59v.61a.16.16,0,0,0,0,.11.1.1,0,0,0,.09,0V9l-.12,0h-.1A.31.31,0,0,1,74.59,9a.26.26,0,0,1-.09-.16v-.1a1,1,0,0,1-.32.25.89.89,0,0,1-.39.09A.66.66,0,0,1,73.44,9a.55.55,0,0,1-.24-.21.59.59,0,0,1-.09-.31m1.21.09.07-.08a.31.31,0,0,0,0-.08V8.2l-.19,0-.2,0a.66.66,0,0,0-.32.08.25.25,0,0,0-.12.22.22.22,0,0,0,0,.13.32.32,0,0,0,.12.11.49.49,0,0,0,.19,0,.78.78,0,0,0,.21,0,.61.61,0,0,0,.18-.11"/><path class="cls-1" d="M77.94,9h-.5V8a.5.5,0,0,0-.08-.33.28.28,0,0,0-.24-.11.36.36,0,0,0-.19.05.49.49,0,0,0-.18.14.67.67,0,0,0-.12.2V9h-.5V6.33h.5V7.47a.8.8,0,0,1,.7-.39.68.68,0,0,1,.31.06.45.45,0,0,1,.18.18.64.64,0,0,1,.1.24,2.45,2.45,0,0,1,0,.27"/><path class="cls-1" d="M78.18,8.47a.59.59,0,0,1,.1-.33.62.62,0,0,1,.3-.22A1.18,1.18,0,0,1,79,7.84l.25,0a.71.71,0,0,1,.22.06v-.1a.36.36,0,0,0-.11-.28.44.44,0,0,0-.32-.1.81.81,0,0,0-.31.06,1.26,1.26,0,0,0-.3.16l-.16-.33a1.62,1.62,0,0,1,.4-.19,1.42,1.42,0,0,1,.42-.06,1,1,0,0,1,.65.2.78.78,0,0,1,.23.59v.61a.16.16,0,0,0,0,.11.1.1,0,0,0,.09,0V9l-.12,0h-.09A.32.32,0,0,1,79.66,9a.34.34,0,0,1-.1-.16v-.1a1,1,0,0,1-.32.25.92.92,0,0,1-.39.09A.66.66,0,0,1,78.51,9a.5.5,0,0,1-.24-.21.59.59,0,0,1-.09-.31m1.21.09.07-.08a.31.31,0,0,0,0-.08V8.2l-.19,0-.2,0a.63.63,0,0,0-.32.08.25.25,0,0,0-.12.22.22.22,0,0,0,0,.13.32.32,0,0,0,.12.11.49.49,0,0,0,.19,0,.78.78,0,0,0,.21,0,.61.61,0,0,0,.18-.11"/><path class="cls-1" d="M81.28,9.07A1,1,0,0,1,80.86,9a.83.83,0,0,1-.33-.22,1.1,1.1,0,0,1-.28-.7,1,1,0,0,1,.13-.49.89.89,0,0,1,.36-.36,1,1,0,0,1,.54-.14,1,1,0,0,1,.54.14.9.9,0,0,1,.34.36l-.49.14a.49.49,0,0,0-.16-.16.48.48,0,0,0-.24-.06.55.55,0,0,0-.25.07.49.49,0,0,0-.18.2.6.6,0,0,0-.07.3.58.58,0,0,0,.07.3.44.44,0,0,0,.18.2.45.45,0,0,0,.42,0,.53.53,0,0,0,.15-.08.47.47,0,0,0,.09-.12l.49.15a1.21,1.21,0,0,1-.2.26,1.26,1.26,0,0,1-.3.18,1.14,1.14,0,0,1-.39.06"/><path class="cls-1" d="M82.41,6.33h.49v.49h-.49Zm0,.76h.49V9h-.49Z"/><path class="cls-1" d="M83.16,8.47a.52.52,0,0,1,.1-.33.62.62,0,0,1,.3-.22A1.14,1.14,0,0,1,84,7.84l.25,0a.71.71,0,0,1,.22.06v-.1a.36.36,0,0,0-.11-.28.45.45,0,0,0-.33-.1.8.8,0,0,0-.3.06,1.1,1.1,0,0,0-.3.16l-.16-.33a1.75,1.75,0,0,1,.39-.19,1.49,1.49,0,0,1,.43-.06,1,1,0,0,1,.64.2.74.74,0,0,1,.23.59v.61a.16.16,0,0,0,0,.11.13.13,0,0,0,.09,0V9l-.12,0h-.09A.29.29,0,0,1,84.64,9a.27.27,0,0,1-.1-.16v-.1a.8.8,0,0,1-.32.25.85.85,0,0,1-.38.09A.63.63,0,0,1,83.49,9a.58.58,0,0,1-.25-.21.68.68,0,0,1-.08-.31m1.21.09.06-.08a.16.16,0,0,0,0-.08V8.2l-.19,0-.2,0a.61.61,0,0,0-.32.08.26.26,0,0,0-.13.22.36.36,0,0,0,.16.24.58.58,0,0,0,.19,0,.59.59,0,0,0,.4-.15"/><path class="cls-1" d="M60.05,10.3h.5v2.09a.26.26,0,0,0,.05.18.17.17,0,0,0,.12,0l.12,0,.11,0,.07.37a.9.9,0,0,1-.23.08,1.1,1.1,0,0,1-.25,0,.52.52,0,0,1-.36-.12.49.49,0,0,1-.13-.36"/><path class="cls-1" d="M61,12.44a.56.56,0,0,1,.1-.33.78.78,0,0,1,.3-.22,1.14,1.14,0,0,1,.43-.07,1.06,1.06,0,0,1,.25,0,1,1,0,0,1,.22.05v-.1a.34.34,0,0,0-.11-.28.49.49,0,0,0-.32-.1.81.81,0,0,0-.31.06,1.77,1.77,0,0,0-.3.16l-.16-.32a1.4,1.4,0,0,1,.39-.19,1.25,1.25,0,0,1,.43-.07.9.9,0,0,1,.64.21.71.71,0,0,1,.23.58v.61a.24.24,0,0,0,0,.11.11.11,0,0,0,.1,0V13l-.13,0h-.09a.34.34,0,0,1-.22-.06.28.28,0,0,1-.09-.17l0-.1a.82.82,0,0,1-.69.34.78.78,0,0,1-.35-.07.57.57,0,0,1-.24-.22.56.56,0,0,1-.09-.31m1.21.1a.47.47,0,0,0,.06-.09.16.16,0,0,0,0-.08v-.19a1.39,1.39,0,0,0-.19-.06l-.2,0a.63.63,0,0,0-.32.08.26.26,0,0,0-.12.22.25.25,0,0,0,0,.14.29.29,0,0,0,.12.1.34.34,0,0,0,.18,0,.54.54,0,0,0,.22,0,.77.77,0,0,0,.18-.1"/><polyline class="cls-1" points="65.94 12.56 65.94 13.01 64.11 13.01 64.11 10.37 65.91 10.37 65.91 10.82 64.63 10.82 64.63 11.46 65.73 11.46 65.73 11.87 64.63 11.87 64.63 12.56"/><polyline class="cls-1" points="66.55 11.08 66.95 11.69 66.98 11.75 67.02 11.69 67.43 11.08 67.95 11.08 67.28 12.04 67.96 13.01 67.44 13.01 67.02 12.41 66.98 12.35 66.95 12.41 66.54 13.01 66.02 13.01 66.7 12.05 66.03 11.08"/><path class="cls-1" d="M69,13a1.09,1.09,0,0,1-.42-.07,1.12,1.12,0,0,1-.33-.22,1.07,1.07,0,0,1-.27-.7,1.06,1.06,0,0,1,.12-.5.93.93,0,0,1,.35-.36,1.1,1.1,0,0,1,.55-.14,1,1,0,0,1,.54.14.9.9,0,0,1,.34.36l-.49.15a.44.44,0,0,0-.16-.17.59.59,0,0,0-.23,0,.44.44,0,0,0-.26.07.46.46,0,0,0-.19.2.67.67,0,0,0-.06.3.65.65,0,0,0,.06.29.55.55,0,0,0,.19.21.44.44,0,0,0,.26.07l.17,0a.35.35,0,0,0,.13-.08.23.23,0,0,0,.1-.12l.49.15a.82.82,0,0,1-.2.26.92.92,0,0,1-.3.18A1.23,1.23,0,0,1,69,13"/><path class="cls-1" d="M71,13a1.18,1.18,0,0,1-.43-.07,1.21,1.21,0,0,1-.32-.22,1.16,1.16,0,0,1-.2-.32.91.91,0,0,1-.08-.37.93.93,0,0,1,.13-.5.86.86,0,0,1,.36-.37,1,1,0,0,1,.54-.14,1,1,0,0,1,.55.14.9.9,0,0,1,.34.36A1,1,0,0,1,72,12v.09s0,.06,0,.08h-1.5a.54.54,0,0,0,.09.25.46.46,0,0,0,.18.16.54.54,0,0,0,.25.06.55.55,0,0,0,.28-.07.41.41,0,0,0,.18-.19l.43.12a.86.86,0,0,1-.21.26.87.87,0,0,1-.31.18A1.23,1.23,0,0,1,71,13m-.51-1.15h1a.5.5,0,0,0-.09-.25.42.42,0,0,0-.18-.17.49.49,0,0,0-.25-.06.53.53,0,0,0-.24.06.58.58,0,0,0-.18.17.61.61,0,0,0-.08.25"/><path class="cls-1" d="M72.21,10.3h.5v2.09a.26.26,0,0,0,0,.18.17.17,0,0,0,.13,0l.12,0,.11,0,.07.37a.85.85,0,0,1-.24.08,1.06,1.06,0,0,1-.24,0,.51.51,0,0,1-.36-.12.49.49,0,0,1-.13-.36"/><path class="cls-1" d="M74.23,13A1.18,1.18,0,0,1,73.8,13a1.21,1.21,0,0,1-.32-.22,1.16,1.16,0,0,1-.2-.32.9.9,0,0,1-.07-.37.93.93,0,0,1,.12-.5.86.86,0,0,1,.36-.37,1,1,0,0,1,.54-.14,1,1,0,0,1,.55.14.9.9,0,0,1,.34.36.94.94,0,0,1,.12.49v.17H73.73a.54.54,0,0,0,.09.25.46.46,0,0,0,.18.16.54.54,0,0,0,.25.06.55.55,0,0,0,.28-.07.37.37,0,0,0,.18-.19l.43.12a.86.86,0,0,1-.21.26.79.79,0,0,1-.31.18,1.23,1.23,0,0,1-.39.06m-.51-1.15h1a.5.5,0,0,0-.09-.25.42.42,0,0,0-.18-.17.49.49,0,0,0-.25-.06.53.53,0,0,0-.24.06.58.58,0,0,0-.18.17.61.61,0,0,0-.08.25"/><path class="cls-1" d="M77.29,13H76.8V11.93a.5.5,0,0,0-.09-.33.27.27,0,0,0-.22-.11.46.46,0,0,0-.2,0,.85.85,0,0,0-.19.14.72.72,0,0,0-.12.21V13h-.49V11.08h.44v.36a1.29,1.29,0,0,1,.19-.21.84.84,0,0,1,.27-.13,1.07,1.07,0,0,1,.32,0,.56.56,0,0,1,.3.07.46.46,0,0,1,.17.17.85.85,0,0,1,.09.24,2.64,2.64,0,0,1,0,.28"/><path class="cls-1" d="M78.57,13a1.18,1.18,0,0,1-.43-.07,1.21,1.21,0,0,1-.32-.22,1.15,1.15,0,0,1-.21-.33.94.94,0,0,1-.07-.37,1.06,1.06,0,0,1,.12-.5,1,1,0,0,1,.36-.36,1,1,0,0,1,.54-.14,1,1,0,0,1,.54.14.79.79,0,0,1,.34.36L79,11.7a.55.55,0,0,0-.17-.17.59.59,0,0,0-.23,0,.48.48,0,0,0-.26.07.39.39,0,0,0-.18.2.66.66,0,0,0-.07.3.65.65,0,0,0,.07.29.55.55,0,0,0,.19.21.43.43,0,0,0,.25.07.47.47,0,0,0,.17,0,.39.39,0,0,0,.14-.08.4.4,0,0,0,.1-.12l.48.15a.79.79,0,0,1-.19.26A.92.92,0,0,1,79,13a1.23,1.23,0,0,1-.39.06"/><path class="cls-1" d="M79.69,10.3h.5v.49h-.5Zm0,.76h.5V13h-.5Z"/><path class="cls-1" d="M80.44,12.44a.64.64,0,0,1,.1-.33.87.87,0,0,1,.3-.22,1.18,1.18,0,0,1,.43-.07,1.14,1.14,0,0,1,.26,0l.21.05v-.1a.34.34,0,0,0-.11-.28.49.49,0,0,0-.32-.1.81.81,0,0,0-.31.06,1.77,1.77,0,0,0-.3.16l-.16-.32a1.33,1.33,0,0,1,.4-.19,1.16,1.16,0,0,1,.42-.07.94.94,0,0,1,.65.21.74.74,0,0,1,.23.58v.61a.16.16,0,0,0,0,.11s0,0,.09,0V13l-.12,0h-.09a.37.37,0,0,1-.23-.06.28.28,0,0,1-.09-.17v-.1a.9.9,0,0,1-.32.26.87.87,0,0,1-.38.08.78.78,0,0,1-.35-.07.64.64,0,0,1-.24-.22.56.56,0,0,1-.09-.31m1.21.1.07-.09a.31.31,0,0,0,0-.08v-.19a1.06,1.06,0,0,0-.19-.06l-.2,0a.66.66,0,0,0-.32.08.26.26,0,0,0-.12.22.37.37,0,0,0,0,.14.29.29,0,0,0,.12.1.38.38,0,0,0,.19,0,.6.6,0,0,0,.22,0,.69.69,0,0,0,.17-.1"/><path class="cls-1" d="M63.24,14.35h.52l1,2.63H64.2L64,16.32H63l-.22.66h-.52m1.59-1-.36-1.08L63.13,16Z"/><path class="cls-1" d="M67.92,17h-.5V15.91a.62.62,0,0,0-.07-.34.28.28,0,0,0-.23-.11.41.41,0,0,0-.27.12.59.59,0,0,0-.19.29V17h-.5V15.91a.52.52,0,0,0-.08-.34.25.25,0,0,0-.22-.11.5.5,0,0,0-.28.11.71.71,0,0,0-.18.29V17h-.5V15.06h.45v.36a.65.65,0,0,1,.3-.29.82.82,0,0,1,.42-.1.59.59,0,0,1,.38.11.51.51,0,0,1,.17.29.86.86,0,0,1,.3-.3.84.84,0,0,1,.42-.1.6.6,0,0,1,.29.06.42.42,0,0,1,.18.17,1.06,1.06,0,0,1,.09.25,2.45,2.45,0,0,1,0,.27"/><path class="cls-1" d="M69.4,17a.88.88,0,0,1-.4-.1.83.83,0,0,1-.28-.28V17h-.43V14.27h.5V15.4a.7.7,0,0,1,.27-.27.77.77,0,0,1,.4-.1.66.66,0,0,1,.34.08.79.79,0,0,1,.27.21,1,1,0,0,1,.17.32,1,1,0,0,1,.07.39,1.22,1.22,0,0,1-.07.38,1.13,1.13,0,0,1-.19.32.9.9,0,0,1-.65.29m-.14-.42a.54.54,0,0,0,.22-.05.66.66,0,0,0,.17-.12.54.54,0,0,0,.11-.18.78.78,0,0,0,0-.22.73.73,0,0,0-.07-.29.46.46,0,0,0-.18-.21.45.45,0,0,0-.26-.08.54.54,0,0,0-.21.05.7.7,0,0,0-.17.13.76.76,0,0,0-.12.19v.45a.37.37,0,0,0,.07.14.63.63,0,0,0,.12.1.59.59,0,0,0,.14.06.35.35,0,0,0,.14,0"/><path class="cls-1" d="M70.58,14.27h.5v.5h-.5Zm0,.77h.5V17h-.5Z"/><path class="cls-1" d="M72.36,17a1.16,1.16,0,0,1-.42-.08.91.91,0,0,1-.32-.22,1,1,0,0,1-.21-.31,1.22,1.22,0,0,1-.07-.38,1,1,0,0,1,.13-.5,1,1,0,0,1,.35-.37,1.07,1.07,0,0,1,.55-.13.94.94,0,0,1,.89.5,1,1,0,0,1,.12.48.28.28,0,0,1,0,.09v.08h-1.5a.42.42,0,0,0,.09.25.37.37,0,0,0,.18.17.49.49,0,0,0,.24,0,.53.53,0,0,0,.28-.07.37.37,0,0,0,.18-.19l.43.12a.86.86,0,0,1-.2.26.87.87,0,0,1-.31.18,1,1,0,0,1-.4.07m-.5-1.16h1a.67.67,0,0,0-.08-.25.55.55,0,0,0-.18-.16.54.54,0,0,0-.25-.06.48.48,0,0,0-.24.06.46.46,0,0,0-.18.16.67.67,0,0,0-.08.25"/><path class="cls-1" d="M75.43,17h-.5V15.91a.58.58,0,0,0-.08-.34.28.28,0,0,0-.23-.11.49.49,0,0,0-.2,0,.62.62,0,0,0-.18.14.45.45,0,0,0-.12.21V17h-.5V15.06h.45v.36a.67.67,0,0,1,.19-.22,1.05,1.05,0,0,1,.26-.13,1.12,1.12,0,0,1,.32,0,.67.67,0,0,1,.3.06.42.42,0,0,1,.18.17.73.73,0,0,1,.08.25,1.24,1.24,0,0,1,0,.27"/><path class="cls-1" d="M77,16.88l-.15.06a1.06,1.06,0,0,1-.19.06l-.21,0a.7.7,0,0,1-.25-.05.34.34,0,0,1-.18-.15.47.47,0,0,1-.07-.28v-1.1h-.26v-.38h.26v-.63h.49v.63h.41v.38h-.41v.94a.26.26,0,0,0,.06.14.18.18,0,0,0,.13,0l.15,0,.12-.05"/><path class="cls-1" d="M77,16.41a.52.52,0,0,1,.11-.32.62.62,0,0,1,.3-.22,1.14,1.14,0,0,1,.43-.08l.25,0a.79.79,0,0,1,.22.06v-.11a.38.38,0,0,0-.11-.28.54.54,0,0,0-.33-.09.76.76,0,0,0-.3,0,1.84,1.84,0,0,0-.31.16l-.16-.32a1.33,1.33,0,0,1,.4-.19,1.47,1.47,0,0,1,.42-.06.92.92,0,0,1,.65.2.73.73,0,0,1,.23.59v.61a.18.18,0,0,0,0,.11.19.19,0,0,0,.09,0V17l-.12,0h-.09a.34.34,0,0,1-.22-.07.27.27,0,0,1-.1-.16v-.1a.84.84,0,0,1-.31.25.92.92,0,0,1-.39.09.78.78,0,0,1-.35-.08.64.64,0,0,1-.24-.22.54.54,0,0,1-.09-.31m1.21.1.07-.09a.13.13,0,0,0,0-.08v-.19l-.2,0a.68.68,0,0,0-.2,0,.51.51,0,0,0-.31.08.24.24,0,0,0-.12.21.23.23,0,0,0,0,.14.24.24,0,0,0,.12.1.32.32,0,0,0,.18,0,.57.57,0,0,0,.22,0,.4.4,0,0,0,.17-.1"/><path class="cls-1" d="M79.21,14.27h.5v2.09a.26.26,0,0,0,0,.18.13.13,0,0,0,.12.05H80l.12,0,.07.38-.24.07-.24,0a.45.45,0,0,1-.36-.13.45.45,0,0,1-.13-.35"/><path class="cls-1" d="M27.06,12.92h.51a.43.43,0,0,1,.46.45.43.43,0,0,1-.46.45h-.36v.59h-.15m.49-.72a.32.32,0,1,0,0-.64h-.34v.64Z"/><path class="cls-1" d="M28.26,13.35h.14v.18a.41.41,0,0,1,0,.09h0a.37.37,0,0,1,.34-.29h.05v.14h-.05a.35.35,0,0,0-.31.27.76.76,0,0,0,0,.21v.45h-.14"/><path class="cls-1" d="M29.46,13.32a.56.56,0,1,1-.56.55.55.55,0,0,1,.56-.55m0,1a.43.43,0,0,0,0-.85.43.43,0,0,0,0,.85"/><path class="cls-1" d="M30.64,14.72a.33.33,0,0,0,.37-.33v-.17h0a.37.37,0,0,1-.34.18.49.49,0,0,1-.47-.54.48.48,0,0,1,.46-.54.35.35,0,0,1,.35.18h0v-.15h.14v1a.45.45,0,0,1-.5.47.86.86,0,0,1-.36-.08l.06-.12a.68.68,0,0,0,.29.07m.37-.86c0-.31-.15-.41-.33-.41s-.33.15-.33.4.13.42.35.42.31-.1.31-.41"/><path class="cls-1" d="M31.48,13.35h.14v.27h0a.37.37,0,0,1,.34-.29h0v.14h0a.35.35,0,0,0-.31.27.76.76,0,0,0,0,.21v.45h-.14"/><path class="cls-1" d="M32.77,13.75h.06v0a.24.24,0,0,0-.26-.27.5.5,0,0,0-.3.1l-.07-.11a.62.62,0,0,1,.38-.12c.26,0,.39.14.39.41v.68h-.13V14.2a.39.39,0,0,1-.36.23.33.33,0,0,1-.36-.31c0-.36.47-.37.65-.37m-.26.56c.2,0,.32-.21.32-.4v0h-.06c-.17,0-.5,0-.5.24a.21.21,0,0,0,.24.2"/><path class="cls-1" d="M33.29,13.35h.14v.15a.41.41,0,0,1,0,.09h0a.42.42,0,0,1,.38-.27.29.29,0,0,1,.33.27h0a.42.42,0,0,1,.39-.27c.25,0,.35.15.35.41v.68h-.15v-.64c0-.18,0-.32-.23-.32a.37.37,0,0,0-.33.3.39.39,0,0,0,0,.15v.51H34v-.64c0-.16,0-.32-.23-.32a.4.4,0,0,0-.35.31.71.71,0,0,0,0,.14v.51h-.14"/><path class="cls-1" d="M35.76,13.75h.06v0a.24.24,0,0,0-.26-.27.5.5,0,0,0-.3.1l-.07-.11a.62.62,0,0,1,.38-.12.37.37,0,0,1,.4.41v.68h-.14V14.2h0a.39.39,0,0,1-.36.23.32.32,0,0,1-.36-.31c0-.36.47-.37.65-.37m-.26.56c.2,0,.32-.21.32-.4v0h-.06c-.17,0-.5,0-.5.24a.21.21,0,0,0,.24.2"/><path class="cls-1" d="M37.23,13.32a.38.38,0,0,1,.35.2h0v-.6h.14v1.49h-.14v-.12a.24.24,0,0,1,0-.07h0a.39.39,0,0,1-.36.21c-.29,0-.46-.23-.46-.55s.19-.56.47-.56m0,1c.18,0,.34-.12.34-.42s-.11-.43-.34-.43-.34.16-.34.43.14.42.34.42"/><path class="cls-1" d="M38.5,13.32a.44.44,0,0,1,.44.49.35.35,0,0,1,0,.07h-.81a.4.4,0,0,0,.41.42.5.5,0,0,0,.33-.13l.06.11a.59.59,0,0,1-.39.15.53.53,0,0,1-.55-.55.52.52,0,0,1,.52-.56m.3.45a.3.3,0,0,0-.31-.33.35.35,0,0,0-.36.33Z"/><polyline class="cls-1" points="39.78 12.92 40.62 12.92 40.62 13.05 39.93 13.05 39.93 13.59 40.5 13.59 40.5 13.72 39.93 13.72 39.93 14.28 40.66 14.28 40.66 14.41 39.78 14.41"/><path class="cls-1" d="M41.27,14l0,.06-.25.4h-.17l.37-.56-.34-.5H41l.22.35,0,.06,0-.06.23-.35h.17l-.35.5.38.56h-.17l-.26-.4a.28.28,0,0,1,0-.06h0"/><path class="cls-1" d="M42.41,13.32a.53.53,0,0,1,.39.15l-.07.11a.45.45,0,0,0-.31-.13.43.43,0,0,0,0,.85.48.48,0,0,0,.34-.15l.06.12a.56.56,0,0,1-.41.16.54.54,0,0,1-.56-.55.55.55,0,0,1,.56-.56"/><path class="cls-1" d="M43.51,13.32a.45.45,0,0,1,.45.49v.07h-.82a.4.4,0,0,0,.41.42.46.46,0,0,0,.32-.13l.07.11a.59.59,0,0,1-.39.15.54.54,0,0,1-.56-.55.52.52,0,0,1,.52-.56m.3.45a.29.29,0,0,0-.3-.33.36.36,0,0,0-.36.33Z"/><path class="cls-1" d="M44.2,12.92h.15v1.2c0,.14.06.17.11.17h0v.13h0a.23.23,0,0,1-.25-.26"/><path class="cls-1" d="M45.16,13.32a.45.45,0,0,1,.45.49.35.35,0,0,1,0,.07h-.81a.39.39,0,0,0,.41.42.49.49,0,0,0,.32-.13l.07.11a.59.59,0,0,1-.39.15.54.54,0,0,1-.56-.55.52.52,0,0,1,.52-.56m.3.45c0-.23-.14-.33-.3-.33a.37.37,0,0,0-.37.33Z"/><path class="cls-1" d="M45.86,13.35H46v.24h0a.46.46,0,0,1,.43-.27c.26,0,.35.15.35.41v.68h-.14v-.64c0-.17,0-.32-.23-.32a.42.42,0,0,0-.39.3.77.77,0,0,0,0,.15v.51h-.14"/><path class="cls-1" d="M47.57,13.32a.57.57,0,0,1,.4.15l-.08.11a.45.45,0,0,0-.31-.13.43.43,0,0,0,0,.85.49.49,0,0,0,.35-.15l.06.12a.57.57,0,0,1-.42.16.53.53,0,0,1-.55-.55.54.54,0,0,1,.55-.56"/><path class="cls-1" d="M48.23,12.92h.15v.18h-.15Zm0,.43h.15v1.06h-.15Z"/><path class="cls-1" d="M49.27,13.75h0v0a.24.24,0,0,0-.26-.27.5.5,0,0,0-.3.1l-.07-.11a.62.62,0,0,1,.38-.12.36.36,0,0,1,.4.41v.68h-.14v-.12a.41.41,0,0,1,0-.09h0a.38.38,0,0,1-.35.23.32.32,0,0,1-.36-.31c0-.36.46-.37.65-.37m-.27.56c.2,0,.32-.21.32-.4v0h-.06c-.16,0-.5,0-.5.24a.21.21,0,0,0,.24.2"/><path class="cls-1" d="M30.87,16.69h-.6l-.17.47H30l.54-1.48h.16l.54,1.48H31m-.47-1.33a1.62,1.62,0,0,1-.06.19l-.19.54h.5L30.63,16Z"/><path class="cls-1" d="M31.37,16.1h.15v.16a.38.38,0,0,1,0,.08h0a.42.42,0,0,1,.38-.27.29.29,0,0,1,.33.27h0a.46.46,0,0,1,.39-.27c.26,0,.36.15.36.41v.68h-.15v-.64c0-.17,0-.32-.23-.32a.38.38,0,0,0-.33.3.41.41,0,0,0,0,.16v.5h-.14v-.64c0-.16,0-.32-.23-.32a.4.4,0,0,0-.35.32.61.61,0,0,0,0,.14v.5h-.15"/><path class="cls-1" d="M33.29,15.68h.14v.6a.39.39,0,0,1,.36-.21c.29,0,.46.23.46.56a.5.5,0,0,1-.47.56.38.38,0,0,1-.35-.21h0v.18h-.14m.47-.1c.19,0,.35-.16.35-.43s-.14-.43-.34-.43-.34.13-.34.43.11.43.33.43"/><path class="cls-1" d="M34.51,15.68h.15v.18h-.15Zm0,.42h.14v1.06h-.14Z"/><path class="cls-1" d="M35.43,16.07a.44.44,0,0,1,.44.49v.08h-.82a.41.41,0,0,0,.41.42.5.5,0,0,0,.33-.13l.06.11a.59.59,0,0,1-.39.15.54.54,0,0,1-.56-.56.52.52,0,0,1,.53-.56m.3.45a.3.3,0,0,0-.3-.33.37.37,0,0,0-.37.33Z"/><path class="cls-1" d="M36.13,16.1h.14v.16a.38.38,0,0,1,0,.08h0a.45.45,0,0,1,.42-.27c.27,0,.36.15.36.41v.68H36.9v-.64c0-.16,0-.31-.23-.31a.39.39,0,0,0-.38.3.59.59,0,0,0,0,.14v.51h-.14"/><path class="cls-1" d="M37.4,16.23h-.14v-.12h.14V15.8h.14v.31h.27v.12h-.27v.53c0,.25.16.28.24.28h0v.12h-.06c-.12,0-.37,0-.37-.4"/><path class="cls-1" d="M38.61,16.5h.06v0c0-.21-.11-.28-.27-.28a.49.49,0,0,0-.29.1L38,16.19a.6.6,0,0,1,.37-.12.36.36,0,0,1,.4.41v.68h-.14V17a.28.28,0,0,1,0-.08h0a.37.37,0,0,1-.35.23.33.33,0,0,1-.36-.32c0-.36.47-.37.65-.37m-.27.56a.37.37,0,0,0,.33-.39v-.05H38.6c-.16,0-.49,0-.49.24a.2.2,0,0,0,.23.2"/><path class="cls-1" d="M39.11,15.68h.15v1.2c0,.14.06.16.11.16h0v.12h-.06a.23.23,0,0,1-.24-.26"/><path class="cls-1" d="M40.21,15.68h.48a.74.74,0,1,1,0,1.48h-.48m.47-.13a.61.61,0,0,0,0-1.22h-.32V17Z"/><path class="cls-1" d="M41.71,15.68h.15v.18h-.15Zm0,.42h.15v1.06h-.15Z"/><path class="cls-1" d="M42.17,16.93a.46.46,0,0,0,.32.13c.11,0,.21-.06.21-.17s-.57-.18-.57-.52.17-.3.37-.3a.42.42,0,0,1,.32.12l-.06.11a.4.4,0,0,0-.27-.1c-.11,0-.21.05-.21.17s.57.17.57.52a.32.32,0,0,1-.36.3A.52.52,0,0,1,42.1,17"/><path class="cls-1" d="M43.14,16.23H43v-.12h.14V15.8h.14v.31h.27v.12h-.27v.53c0,.25.16.28.24.28h0v.12h-.06c-.13,0-.37,0-.37-.4"/><path class="cls-1" d="M43.78,16.1h.14v.27h0a.36.36,0,0,1,.34-.28h.06v.15h0a.33.33,0,0,0-.31.28.69.69,0,0,0,0,.2v.45h-.15"/><path class="cls-1" d="M44.51,15.68h.15v.18h-.15Zm0,.42h.15v1.06h-.15Z"/><path class="cls-1" d="M45,16.23h-.13v-.12H45V15.8h.15v.31h.26v.12h-.26v.53c0,.25.15.28.24.28h0v.12h-.06c-.12,0-.37,0-.37-.4"/><path class="cls-1" d="M46.23,16.5h.06v0c0-.21-.11-.28-.26-.28a.5.5,0,0,0-.3.1l-.07-.11a.62.62,0,0,1,.38-.12c.26,0,.39.14.39.41v.68H46.3V17h0a.39.39,0,0,1-.36.23.34.34,0,0,1-.36-.32c0-.36.47-.37.65-.37m-.26.56a.37.37,0,0,0,.32-.39v-.05h-.06c-.16,0-.5,0-.5.24a.21.21,0,0,0,.24.2"/><path class="cls-1" d="M46.74,15.68h.14v1.2c0,.14.06.16.12.16h0v.12H47c-.09,0-.24,0-.24-.26"/><path class="cls-1" d="M26.53,6.16h2.28A1.75,1.75,0,0,1,30.59,8a1.76,1.76,0,0,1-1.78,1.9h-.94v1.7H26.53m2-2.85a.67.67,0,0,0,.7-.75.65.65,0,0,0-.68-.73h-.68V8.79Z"/><path class="cls-1" d="M31.39,6.16H33.3a2.89,2.89,0,0,1,1.06.13,1.6,1.6,0,0,1,1,1.59,1.66,1.66,0,0,1-.82,1.5h0a2.75,2.75,0,0,1,.21.33l1.06,1.92H34.33l-1-1.85h-.63v1.85H31.39m1.92-3A.63.63,0,0,0,34,8c0-.42-.16-.66-.83-.66h-.45V8.64Z"/><polyline class="cls-1" points="36.61 6.16 40.05 6.16 40.05 7.31 37.95 7.31 37.95 8.3 39.62 8.3 39.62 9.45 37.95 9.45 37.95 10.49 40.15 10.49 40.15 11.64 36.61 11.64"/><path class="cls-1" d="M43.78,10.49H42.07l-.33,1.15H40.37l1.86-5.48h1.41l1.86,5.48H44.12m-1.2-4.23s-.12.6-.22.94l-.31,1.07h1.08l-.31-1.07c-.1-.34-.22-.94-.22-.94Z"/><path class="cls-1" d="M46,6.16H48a2.57,2.57,0,0,1,2.83,2.73A2.59,2.59,0,0,1,48,11.64H46m1.9-1.15a1.41,1.41,0,0,0,1.49-1.6,1.4,1.4,0,0,0-1.49-1.58h-.55v3.18Z"/><path class="cls-1" d="M5.89,16.8c.05-.11.08-.24.13-.35.15-.28.31-.55.47-.82a1,1,0,0,0,.06-.94c0-.07-.06-.15-.1-.23a1,1,0,0,0-.64-.56l-.92-.26a.69.69,0,0,1-.57-.77v-2.4a.7.7,0,0,1,.59-.78,6.36,6.36,0,0,1,.83-.22,1.28,1.28,0,0,0,.74-1.78c-.17-.25-.3-.53-.46-.8A.69.69,0,0,1,6.14,6L7.92,4.23a.66.66,0,0,1,.87-.12c.28.15.57.3.84.48a1.28,1.28,0,0,0,1.74-.74,9.21,9.21,0,0,1,.25-.9.68.68,0,0,1,.72-.54c.83,0,1.65,0,2.48,0a.68.68,0,0,1,.73.56c.09.3.17.6.25.89a1,1,0,0,0,.62.7,1.18,1.18,0,0,0,.86.13l.28-.13.81-.45a.66.66,0,0,1,.87.12c.6.59,1.2,1.19,1.79,1.79a.67.67,0,0,1,.12.85c-.15.27-.29.56-.46.81a1.27,1.27,0,0,0,.73,1.79,7.21,7.21,0,0,1,.91.25.64.64,0,0,1,.51.6,1.48,1.48,0,0,1,0,.21c0,.76,0,1.52,0,2.28a.75.75,0,0,1-.65.85c-.29.06-.57.16-.85.24a.94.94,0,0,0-.63.55c0,.08-.07.17-.11.25a1,1,0,0,0,.05.91c.16.27.31.54.46.81a.71.71,0,0,1-.12.94l-1.74,1.73a.69.69,0,0,1-.92.13l-.8-.46a1.11,1.11,0,0,0-.94-.06,1.19,1.19,0,0,0-.85.95c-.06.25-.13.49-.2.73a.69.69,0,0,1-.71.56H12.31a.65.65,0,0,1-.69-.53c-.08-.3-.19-.6-.24-.9a1.28,1.28,0,0,0-1.78-.73c-.25.17-.52.3-.79.45a.69.69,0,0,1-.9-.12L6.15,17.34a.8.8,0,0,1-.26-.54m7.3.64c0-.3,0-.56,0-.81A.6.6,0,0,0,13,16.1l-1.74-1.55a1.16,1.16,0,0,1-.18-.2.34.34,0,0,1,.07-.44.33.33,0,0,1,.42,0,1.84,1.84,0,0,1,.22.17L13,15.12l.23.2c0-.37,0-.69,0-1A.42.42,0,0,0,13,14l-.58-.52c-.26-.23-.53-.46-.78-.71a.35.35,0,0,1,0-.5.32.32,0,0,1,.49,0c.2.16.39.34.59.51l.45.4v-.78a.76.76,0,0,0-.33-.69,4.69,4.69,0,0,1-.47-.42c-.21-.21-.24-.43-.1-.58s.35-.15.6.05a3,3,0,0,0,.3.25c0-.35,0-.63,0-.92a1,1,0,0,1,0-.35.34.34,0,0,1,.6-.09.51.51,0,0,1,.08.28v1c.16-.12.27-.21.4-.29a.31.31,0,0,1,.42,0,.33.33,0,0,1,0,.52c-.18.18-.37.35-.56.51a.66.66,0,0,0-.27.46c0,.31,0,.63,0,1l.42-.36c.22-.19.42-.38.64-.55a.32.32,0,0,1,.47,0,.33.33,0,0,1,0,.47.71.71,0,0,1-.15.15l-1.18,1.06a.52.52,0,0,0-.21.44c0,.27,0,.53,0,.8a1.37,1.37,0,0,0,0,.16l.19-.17L15.45,14l.23-.17a.33.33,0,0,1,.45.12.3.3,0,0,1,0,.39c-.11.12-.23.25-.35.36-.54.49-1.09,1-1.62,1.45a.69.69,0,0,0-.21.33c0,.3,0,.61,0,1a7.63,7.63,0,0,0,.76-.2A4.75,4.75,0,0,0,17,15.43a4.76,4.76,0,0,0,.91-3.26A5.79,5.79,0,0,0,16.22,8.6L14.67,7c-.36-.36-.74-.7-1.12-1.07L13.47,6c-.77.79-1.55,1.58-2.31,2.37a8.75,8.75,0,0,0-.72.78,5.83,5.83,0,0,0-1.21,3.28,4.85,4.85,0,0,0,.83,2.85,4.69,4.69,0,0,0,2.53,2c.18.06.38.1.6.15"/><rect class="cls-1" x="53.77" y="0.31" width="0.62" height="23.03"/><path class="cls-1" d="M85.71,23.65H3.05a3.06,3.06,0,0,1-3-3V3.05A3.06,3.06,0,0,1,3.05,0H85.71a3.06,3.06,0,0,1,3.05,3.05V20.6a3.06,3.06,0,0,1-3.05,3M3.05.62A2.43,2.43,0,0,0,.62,3.05V20.6A2.43,2.43,0,0,0,3.05,23H85.71a2.43,2.43,0,0,0,2.43-2.43V3.05A2.43,2.43,0,0,0,85.71.62Z"/></g></g></svg>