<svg xmlns="http://www.w3.org/2000/svg" xmlns:xlink="http://www.w3.org/1999/xlink" viewBox="0 0 30.44 40.24"><defs><style>.cls-1{isolation:isolate;}.cls-2{fill:url(#Degradado_sin_nombre_183);}.cls-3{fill:url(#Áåçûìÿííûé_ãðàäèåíò_2);}.cls-4{fill:url(#Degradado_sin_nombre_26);}.cls-5{fill:#fff;}.cls-6{fill:url(#Degradado_sin_nombre_84);}.cls-7{fill:url(#Degradado_sin_nombre_4);}.cls-8{fill:url(#Degradado_sin_nombre_187);}.cls-9{fill:url(#Degradado_sin_nombre_4-2);}.cls-10{fill:#eaeaea;mix-blend-mode:screen;}.cls-11{fill:url(#Áåçûìÿííûé_ãðàäèåíò_12);}.cls-12{fill:#e8f8fb;}.cls-13{fill:url(#Degradado_sin_nombre_4-3);}.cls-14{fill:url(#Áåçûìÿííûé_ãðàäèåíò_12-2);}.cls-15{fill:url(#Áåçûìÿííûé_ãðàäèåíò_12-3);}.cls-16{fill:url(#Áåçûìÿííûé_ãðàäèåíò_12-4);}.cls-17{fill:url(#Áåçûìÿííûé_ãðàäèåíò_12-5);}</style><linearGradient id="Degradado_sin_nombre_183" x1="10.05" y1="38.19" x2="22.91" y2="23.17" gradientUnits="userSpaceOnUse"><stop offset="0.04" stop-color="#3375b5"/><stop offset="0.33" stop-color="#4293b4"/><stop offset="0.96" stop-color="#69dfb2"/><stop offset="1" stop-color="#6be4b2"/></linearGradient><linearGradient id="Áåçûìÿííûé_ãðàäèåíò_2" x1="9.37" y1="30.7" x2="17.1" y2="21.66" gradientUnits="userSpaceOnUse"><stop offset="0.04" stop-color="#5ec9eb"/><stop offset="1" stop-color="#d7f592"/></linearGradient><linearGradient id="Degradado_sin_nombre_26" x1="240.32" y1="304.4" x2="249.86" y2="288.5" gradientTransform="translate(-313.62 -152.52) rotate(-22.44)" gradientUnits="userSpaceOnUse"><stop offset="0.18" stop-color="#1d4ab6"/><stop offset="0.22" stop-color="#2452b3"/><stop offset="1" stop-color="#d7f592"/></linearGradient><linearGradient id="Degradado_sin_nombre_84" x1="-337.65" y1="-166.98" x2="-325.76" y2="-178.86" gradientTransform="translate(241.1 321.69) rotate(24.58)" gradientUnits="userSpaceOnUse"><stop offset="0" stop-color="#1d4ab6"/><stop offset="0.68" stop-color="#d7f592"/></linearGradient><linearGradient id="Degradado_sin_nombre_4" x1="17.29" y1="13.98" x2="19.67" y2="13.63" gradientTransform="translate(-4.04 -9.76) rotate(-0.01)" gradientUnits="userSpaceOnUse"><stop offset="0.04" stop-color="#306fb5"/><stop offset="0.38" stop-color="#3171b5"/><stop offset="0.54" stop-color="#3579b5"/><stop offset="0.66" stop-color="#3b86b4"/><stop offset="0.77" stop-color="#4598b4"/><stop offset="0.86" stop-color="#51b0b3"/><stop offset="0.95" stop-color="#60cdb3"/><stop offset="1" stop-color="#6be4b2"/></linearGradient><linearGradient id="Degradado_sin_nombre_187" x1="16.67" y1="20.04" x2="20.92" y2="15.24" gradientTransform="translate(-3.98 -9.77)" gradientUnits="userSpaceOnUse"><stop offset="0.04" stop-color="#306fb5"/><stop offset="0.33" stop-color="#3171b5"/><stop offset="0.49" stop-color="#357ab5"/><stop offset="0.63" stop-color="#3d88b4"/><stop offset="0.75" stop-color="#479cb4"/><stop offset="0.86" stop-color="#54b6b3"/><stop offset="0.96" stop-color="#64d5b2"/><stop offset="1" stop-color="#6be4b2"/></linearGradient><linearGradient id="Degradado_sin_nombre_4-2" x1="10.55" y1="36.58" x2="27.32" y2="19.81" gradientTransform="translate(-4.22 -9.5) rotate(-0.8)" xlink:href="#Degradado_sin_nombre_4"/><linearGradient id="Áåçûìÿííûé_ãðàäèåíò_12" x1="13.27" y1="26.9" x2="16.67" y2="26.9" gradientTransform="translate(-4.22 -9.5) rotate(-0.8)" gradientUnits="userSpaceOnUse"><stop offset="0" stop-color="#01050b"/><stop offset="1" stop-color="#0e2a42"/></linearGradient><linearGradient id="Degradado_sin_nombre_4-3" x1="16.76" y1="11.1" x2="19.92" y2="10.64" gradientTransform="translate(-4.22 -9.5) rotate(-0.8)" xlink:href="#Degradado_sin_nombre_4"/><linearGradient id="Áåçûìÿííûé_ãðàäèåíò_12-2" x1="17.22" y1="16.88" x2="22.12" y2="16.88" gradientTransform="matrix(1, 0, 0, 1, 0, 0)" xlink:href="#Áåçûìÿííûé_ãðàäèåíò_12"/><linearGradient id="Áåçûìÿííûé_ãðàäèåíò_12-3" x1="22.48" y1="17.62" x2="23.05" y2="17.62" gradientTransform="matrix(1, 0, 0, 1, 0, 0)" xlink:href="#Áåçûìÿííûé_ãðàäèåíò_12"/><linearGradient id="Áåçûìÿííûé_ãðàäèåíò_12-4" x1="-9.48" y1="6.65" x2="-3.56" y2="0.74" gradientTransform="matrix(1, 0.03, -0.03, 1, 24.02, 17.62)" xlink:href="#Áåçûìÿííûé_ãðàäèåíò_12"/><linearGradient id="Áåçûìÿííûé_ãðàäèåíò_12-5" x1="22.62" y1="17.97" x2="23.03" y2="17.97" gradientTransform="matrix(1, 0, 0, 1, 0, 0)" xlink:href="#Áåçûìÿííûé_ãðàäèåíò_12"/></defs><title>robot</title><g class="cls-1"><g id="Capa_2" data-name="Capa 2"><g id="Pantalla_de_inicio" data-name="Pantalla de inicio"><g id="Botones_transaccionales" data-name="Botones transaccionales"><path class="cls-2" d="M23.66,30.46v.1a2.3,2.3,0,0,1-.13.65A26.54,26.54,0,0,1,21,37.34c-.15.23-.31.45-.47.67s-.47.58-.73.87a4.36,4.36,0,0,1-1.79,1,7.1,7.1,0,0,1-2.63.31H15.3a7.05,7.05,0,0,1-2.62-.31,4.3,4.3,0,0,1-1.79-1c-1.64-1.79-2.27-3.27-3.71-7.67a2.64,2.64,0,0,1-.12-.61,2.26,2.26,0,0,1,0-.26,2.65,2.65,0,0,1,.62-1.51,3.43,3.43,0,0,1,2.69-1.25l5,0,4.9,0A3.52,3.52,0,0,1,23,28.79a2.67,2.67,0,0,1,.61,1.27l0,.19C23.65,30.32,23.66,30.39,23.66,30.46Z"/><path class="cls-3" d="M15.36,27.56l-5,0a3.43,3.43,0,0,0-2.69,1.25,2.65,2.65,0,0,0-.62,1.51,2.66,2.66,0,0,1,.64-1.55,3.54,3.54,0,0,1,2.76-1.25Z"/><path class="cls-4" d="M27.4,27.4c-3.84.5-4.67.09-5.47,1a2.29,2.29,0,0,0-.59,1.39,2.21,2.21,0,0,0,.43,1.34c1.09,1.4,4.79.39,7-1,.48-.3,1.78-1.09,1.64-1.81-.05-.29-.33-.47-.53-.6A3.71,3.71,0,0,0,27.4,27.4Z"/><path class="cls-5" d="M24.32,28.58A6.7,6.7,0,0,0,23,29c-.76.32-1.11.63-1.28.49s-.08-.32-.07-.37c.12-.75,1.44-1.18,2.3-1.27.52-.06,1.12,0,1.18.17a.2.2,0,0,1,0,.16C25,28.45,24.63,28.52,24.32,28.58Z"/><path class="cls-5" d="M25.7,27.87a.15.15,0,0,1,.17.13.16.16,0,0,1-.13.17.15.15,0,1,1,0-.3Z"/><path class="cls-6" d="M3.08,26.85c3.82.63,4.67.26,5.43,1.19a2.24,2.24,0,0,1,.54,1.41,2.17,2.17,0,0,1-.48,1.32c-1.14,1.36-4.8.21-7-1.23C1.12,29.23-.15,28.38,0,27.67c.07-.29.36-.46.57-.58A3.65,3.65,0,0,1,3.08,26.85Z"/><path class="cls-5" d="M6.12,28.14a6.35,6.35,0,0,1,1.26.5c.75.34,1.09.67,1.27.53s.09-.31.09-.36c-.1-.76-1.41-1.23-2.26-1.36-.52-.08-1.12-.06-1.18.13a.19.19,0,0,0,0,.16C5.46,28,5.81,28.07,6.12,28.14Z"/><path class="cls-5" d="M4.77,27.38a.15.15,0,0,0-.18.12.16.16,0,0,0,.12.18.16.16,0,0,0,.18-.12A.15.15,0,0,0,4.77,27.38Z"/><rect class="cls-7" x="14.48" y="1.37" width="0.79" height="5.22" transform="translate(-0.05 0.21) rotate(-0.79)"/><rect class="cls-8" x="11.45" y="6.03" width="6.95" height="3.43" rx="0.7" transform="translate(-0.11 0.21) rotate(-0.79)"/><path class="cls-9" d="M27.55,20.69a5.75,5.75,0,0,1-5.66,5.82l-13.41.18A5.77,5.77,0,0,1,2.66,21l0-3A10.25,10.25,0,0,1,12.69,7.7l4.47-.06A10.25,10.25,0,0,1,27.51,17.71Z"/><path class="cls-5" d="M23.63,20.2h0a2.44,2.44,0,0,1-1.06.26l-14.93.21a2.6,2.6,0,0,1-1.07-.23h0a2,2,0,0,1-1.16-2v-.06a6.17,6.17,0,0,1,5.91-5.15c1.3-.09,2.67-.14,4.09-.15,1.12,0,2.2,0,3.24.05a6.17,6.17,0,0,1,6.08,5v.06A2,2,0,0,1,23.63,20.2Z"/><circle class="cls-10" cx="11.12" cy="17.19" r="2.82"/><path class="cls-11" d="M12.82,17.17a1.7,1.7,0,1,1-1.72-1.68A1.71,1.71,0,0,1,12.82,17.17Z"/><path class="cls-12" d="M12.39,17.17a.63.63,0,0,1-1.26,0,.63.63,0,0,1,.62-.64A.64.64,0,0,1,12.39,17.17Z"/><path class="cls-12" d="M11,18.49a.26.26,0,0,1-.25.26.25.25,0,0,1-.25-.25.24.24,0,0,1,.24-.25A.25.25,0,0,1,11,18.49Z"/><path class="cls-12" d="M10.11,18a.13.13,0,0,1-.13.13A.13.13,0,0,1,9.86,18a.12.12,0,0,1,.12-.12A.12.12,0,0,1,10.11,18Z"/><path class="cls-13" d="M15.85,1a1,1,0,0,1-1,1,1,1,0,0,1-1-1,1,1,0,0,1,1-1A1,1,0,0,1,15.85,1Z"/><path class="cls-5" d="M15.53.61a.31.31,0,0,1-.3.32.33.33,0,0,1-.32-.31.31.31,0,0,1,.31-.31A.3.3,0,0,1,15.53.61Z"/><path class="cls-5" d="M23.74,10.82a1.11,1.11,0,0,1-.81,1.1c-.41.05-.75-.37-1.1-.8S20.73,9.59,21,9.27,23.69,9.7,23.74,10.82Z"/><path class="cls-5" d="M20.25,8.7a.35.35,0,0,1-.34.36.36.36,0,0,1-.36-.35.34.34,0,0,1,.35-.36A.35.35,0,0,1,20.25,8.7Z"/><path class="cls-5" d="M23.78,17.41a14.33,14.33,0,0,0-3.07-2.89c-.76-.48-1.5-.82-1.46-.92A3.2,3.2,0,0,1,20.8,14,5.55,5.55,0,0,1,23.78,17.41Z"/><path class="cls-5" d="M18.19,7s0-.14-.17-.37a1.72,1.72,0,0,0-.13-.2c-.21-.29-.94-.27-1-.27-1.13,0-1.85,0-1.85,0l.91,0c1.09,0,1.74-.11,2,.18a1,1,0,0,1,.17.28A.58.58,0,0,1,18.19,7Z"/><path class="cls-5" d="M14.55,36.28s-.2,0-.23-.17a4.4,4.4,0,0,1,.2-.83.41.41,0,0,1-.16,0l-.12.37c0,.07-.1.37,0,.46a.37.37,0,0,0,.34.13"/><path class="cls-5" d="M14.47,32.54a.2.2,0,0,0,0-.16c-.51-.69-.64-.18-2.31-.43a.25.25,0,0,1-.17-.33.31.31,0,0,0,.09.5c.23.07,2.41.42,2.41.42"/><path class="cls-5" d="M14.65,32.42c.53.14.46.79.39,1.07s-.25,1-.48,1.6l-.14,0s.32-1.07.44-1.53c.23-.86-.18-1-.17-1a.28.28,0,0,0,0-.16"/><path class="cls-5" d="M12,31.67a.23.23,0,0,1,.08-.13,1.37,1.37,0,0,1,.39-.08,3.18,3.18,0,0,1,.63,0h.22a2.1,2.1,0,0,1,.77.49,2.85,2.85,0,0,1,.41.44A20.63,20.63,0,0,1,12,31.94a.27.27,0,0,1-.09-.18V31.7"/><path class="cls-5" d="M14.52,35.28a2.32,2.32,0,0,0,.39-.12,6.79,6.79,0,0,0,.62-.35l-.32.68a3.86,3.86,0,0,1-.53.75.26.26,0,0,1-.33-.05c0-.07,0-.16,0-.35s.18-.56.18-.56"/><path class="cls-5" d="M13.52,31.43s.71.08,1.08.16a5.86,5.86,0,0,1,1.46.44c.21.15.21.23.13.66a6.28,6.28,0,0,1-.3,1,5.45,5.45,0,0,1-.33.87,2.32,2.32,0,0,1-.52.33,1.86,1.86,0,0,1-.48.18s.27-.85.32-1.05a5.24,5.24,0,0,0,.2-.95.7.7,0,0,0-.42-.65A2.26,2.26,0,0,0,14,31.7a3.45,3.45,0,0,0-.46-.27"/><path class="cls-5" d="M16.41,36a.29.29,0,0,1-.29-.21,5.85,5.85,0,0,1,.25-1l-.19,0s-.12.33-.15.46-.12.46-.05.57a.45.45,0,0,0,.43.16"/><path class="cls-5" d="M16.32,31.34a.27.27,0,0,0,0-.2c-.64-.85-.8-.22-2.87-.54a.32.32,0,0,1-.22-.41c-.23.34,0,.57.12.62s3,.53,3,.53"/><path class="cls-5" d="M16.54,31.19c.65.18.56,1,.47,1.33a20.07,20.07,0,0,1-.59,2l-.18,0s.41-1.33.56-1.89c.27-1.07-.22-1.22-.22-1.25a.42.42,0,0,0,0-.2"/><path class="cls-5" d="M13.18,30.26a.26.26,0,0,1,.1-.16,1.53,1.53,0,0,1,.49-.1,4.75,4.75,0,0,1,.78,0l.27,0s.27,0,1,.6a4.05,4.05,0,0,1,.51.55,26.41,26.41,0,0,1-3-.55.35.35,0,0,1-.11-.22.19.19,0,0,1,0-.08"/><path class="cls-5" d="M16.37,34.75a2.52,2.52,0,0,0,.49-.16,7.75,7.75,0,0,0,.77-.44s-.31.67-.41.84a4.42,4.42,0,0,1-.65.95.32.32,0,0,1-.4-.07c-.08-.09-.07-.21,0-.43s.22-.69.22-.69"/><path class="cls-5" d="M15.13,30s.88.09,1.34.19a7.3,7.3,0,0,1,1.81.55c.27.19.27.28.16.81a7.27,7.27,0,0,1-.37,1.28,6.91,6.91,0,0,1-.41,1.08,3.14,3.14,0,0,1-.64.41,2.22,2.22,0,0,1-.6.21s.34-1.06.4-1.29A5.94,5.94,0,0,0,17.06,32a.88.88,0,0,0-.51-.81,2.86,2.86,0,0,0-.85-.92,4.12,4.12,0,0,0-.57-.32"/><path class="cls-14" d="M17.22,17.65a3.86,3.86,0,0,1,2-.8,4.19,4.19,0,0,1,2.95.82,2.84,2.84,0,0,0-2.94-1.55A2.85,2.85,0,0,0,17.22,17.65Z"/><path class="cls-15" d="M22.49,17.7s.56-.19.56-.19A.46.46,0,0,1,22.49,17.7Z"/><path class="cls-12" d="M18.22,22.41a.68.68,0,0,1-.65.59L13,23.3a.69.69,0,0,1-.72-.51,3,3,0,0,1-.09-.43.16.16,0,0,1,0-.12.12.12,0,0,1,.1,0l5.75-.37a.15.15,0,0,1,.11,0,.14.14,0,0,1,.05.11A3.15,3.15,0,0,1,18.22,22.41Z"/><path class="cls-16" d="M18.22,22.41a3,3,0,0,1-5.92.44.71.71,0,0,0,.71.45l4.56-.3A.68.68,0,0,0,18.22,22.41Z"/><path class="cls-17" d="M22.62,17.88s.19-.09.41.19Z"/></g></g></g></g></svg>