<svg xmlns="http://www.w3.org/2000/svg" xmlns:xlink="http://www.w3.org/1999/xlink" viewBox="0 0 45.32 45.32"><defs><style>.cls-1{fill:url(#Degradado_sin_nombre_13);}.cls-2{fill:#fff;}</style><linearGradient id="Degradado_sin_nombre_13" y1="1024.21" x2="45.32" y2="1024.21" gradientTransform="matrix(1, 0, 0, -1, 0, 1046.87)" gradientUnits="userSpaceOnUse"><stop offset="0" stop-color="#00be50"/><stop offset="1" stop-color="#00823a"/></linearGradient></defs><title>whatsapp</title><g id="Capa_2" data-name="Capa 2"><g id="Pantalla_de_inicio" data-name="Pantalla de inicio"><g id="Botones_transaccionales" data-name="Botones transaccionales"><circle id="Circle" class="cls-1" cx="22.66" cy="22.66" r="22.66"/><g id="logo"><path class="cls-2" d="M32.66,13.19A13,13,0,0,0,12.21,28.86l-1.85,6.73,6.89-1.81a12.94,12.94,0,0,0,6.21,1.58h0a13,13,0,0,0,9.19-22.17Zm-9.19,20h0A10.67,10.67,0,0,1,18,31.66l-.4-.23L13.48,32.5l1.09-4-.25-.41a10.79,10.79,0,1,1,9.15,5.06Zm5.92-8.09c-.33-.16-1.92-.94-2.22-1s-.51-.16-.73.16-.84,1.06-1,1.27-.38.25-.7.08a8.63,8.63,0,0,1-2.61-1.61,9.82,9.82,0,0,1-1.81-2.24.48.48,0,0,1,.14-.67c.15-.14.33-.38.49-.57a2.11,2.11,0,0,0,.33-.54.63.63,0,0,0,0-.57c-.08-.16-.73-1.76-1-2.4s-.53-.55-.73-.56h-.62a1.21,1.21,0,0,0-.87.4,3.64,3.64,0,0,0-1.14,2.71,6.34,6.34,0,0,0,1.33,3.36,14.56,14.56,0,0,0,5.54,4.9,19.47,19.47,0,0,0,1.86.68,4.44,4.44,0,0,0,2,.13A3.36,3.36,0,0,0,29.82,27,2.75,2.75,0,0,0,30,25.46C29.93,25.33,29.71,25.25,29.39,25.08Z"/></g></g></g></g></svg>